<svg enable-background="new 0 0 288.0073547 58.9551086" viewBox="0 0 288.0073547 58.9551086" xmlns="http://www.w3.org/2000/svg"><g fill="#b22321"><path d="m2.7243803 40.7146149 5.496582-7.7236328c.4633789.2783203 1.0786133.6503906 1.8442383 1.1132812.7651367.4643555 2.1674805 1.0678711 4.2094727 1.809082 2.0405273.7426758 3.8964844 1.1132812 5.5664062 1.1132812 3.0610352 0 4.5917969-1.1586914 4.5917969-3.4790039 0-1.1132812-.4760742-2.0175781-1.4262695-2.7133789-.9511719-.6958008-2.8647461-1.4614258-5.7402344-2.2963867-4.6391602-1.3447266-8.0952148-3.0024414-10.3671875-4.9746094-2.2734375-1.9711914-3.4096682-4.6030273-3.4096682-7.8974609 0-3.9418945 1.3569338-7.0849609 4.0708008-9.4277344 2.7133789-2.3417971 6.7368164-3.5136721 12.0717773-3.5136721 3.3398438 0 6.3198242.371582 8.940918 1.1132812 2.6201172.7421877 4.3945312 1.4848635 5.3227539 2.2265627l1.4614258 1.1132812-5.4272461 8.2099609c-.3251953-.2783203-.7895508-.6020508-1.3916016-.9741211-.6035156-.3706055-1.7983398-.8803711-3.5834961-1.5307617-1.7861328-.6489258-3.5605469-.9741211-5.3227539-.9741211-3.015625 0-4.5224609 1.0209961-4.5224609 3.0615234 0 1.0209961.4628906 1.809082 1.3916016 2.3657227.9272461.5566406 2.6665039 1.2070312 5.2182617 1.9482422 4.8706055 1.3461914 8.5112305 3.0385742 10.9238281 5.0795898 2.4116211 2.0415039 3.6181641 4.730957 3.6181641 8.0708008 0 4.0356445-1.3686523 7.3525391-4.1049805 9.9501953-2.737793 2.5981445-6.7265625 3.8959961-11.9677734 3.8959961-3.4331055 0-6.5991211-.4638672-9.4975586-1.3911133-2.8994141-.9277344-4.9521484-1.8549805-6.1577148-2.7832031z"/><path d="m41.5485992 45.376236v-42.0952151h10.1586914v15.5161133h.2783203c1.5766602-2.2724609 4.1279297-3.409668 7.6538086-3.409668 3.4790039 0 6.262207 1.1484375 8.3496094 3.4443359s3.1308594 5.3925781 3.1308594 9.2885742v17.1865237h-10.0195312v-16.3515625c0-1.2978516-.4638672-2.4111328-1.3916016-3.3393555-.9282227-.9277344-2.0415039-1.3916016-3.3393555-1.3916016-1.2524414 0-2.3310547.4174805-3.2358398 1.2524414-.9042969.8349609-1.3803711 1.878418-1.4262695 3.1308594v16.7685548z"/><path d="m106.8835602 30.9035797c0 4.5-1.4960938 8.152832-4.487793 10.9589844-2.9921875 2.8071289-6.6689453 4.2094727-11.0283203 4.2094727-4.3608398 0-8.0366211-1.4023438-11.0283203-4.2094727-2.9921875-2.8061523-4.4882812-6.4589844-4.4882812-10.9589844 0-4.5917969 1.4960938-8.3144531 4.4882812-11.1674805 2.9916992-2.8525391 6.6674805-4.2788086 11.0283203-4.2788086 4.359375 0 8.0361328 1.4379883 11.0283203 4.3139648 2.9916992 2.8764649 4.487793 6.5869142 4.487793 11.1323243zm-15.5161133 7.3061524c1.715332 0 3.0961914-.671875 4.1396484-2.0180664 1.0439453-1.3447266 1.5654297-3.1538086 1.5654297-5.4272461 0-2.2265625-.5214844-4.0234375-1.5654297-5.3920898-1.043457-1.3676758-2.4243164-2.0527344-4.1396484-2.0527344-1.7636719 0-3.1660156.6850586-4.2099609 2.0527344-1.043457 1.3686523-1.5654297 3.1655273-1.5654297 5.3920898 0 2.2734375.5219727 4.0825195 1.5654297 5.4272461 1.0439453 1.3461914 2.446289 2.0180664 4.2099609 2.0180664z"/><path d="m122.4685211 42.732193h-.4174805v13.4985352h-10.0195312v-40.0776368h6.3320312l1.5307617 3.9658203h.4174805c.0454102-.1391602.1391602-.3129883.2783203-.5219727.1391602-.2084961.4628906-.5791016.9741211-1.1132812.5097656-.5327148 1.078125-1.0087891 1.7045898-1.4262695.6259766-.4174805 1.4960938-.7880859 2.609375-1.1132812 1.1132812-.3237305 2.2958984-.4868164 3.5483398-.4868164 3.9418945 0 7.1777344 1.3803711 9.7060547 4.1396484 2.527832 2.7607422 3.7924805 6.4599609 3.7924805 11.0981445 0 4.5-1.2416992 8.1875-3.7226562 11.0629883-2.4819336 2.8769531-5.625 4.3139648-9.4282227 4.3139648-1.6699219 0-3.1201172-.2783203-4.3486328-.8349609-1.2294922-.5566406-2.0297852-1.1132812-2.4003906-1.6699219zm.6264649-17.1162109c-1.0209961 1.2988281-1.5307617 3.0385742-1.5307617 5.2182617 0 2.1806641.5097656 3.8964844 1.5307617 5.1489258 1.0195312 1.2524414 2.3881836 1.878418 4.1049805 1.878418 1.715332 0 3.0844727-.6489258 4.1049805-1.9482422 1.0200195-1.2978516 1.5307617-2.9916992 1.5307617-5.0791016s-.5214844-3.8032227-1.5654297-5.1489258c-1.043457-1.3447266-2.4003906-2.0175781-4.0703125-2.0175781-1.7167969 0-3.0854493.6499023-4.1049805 1.9482422z"/><path d="m200.6745758 3.6286771v41.7475589h-7.7929688l-20.0380859-24.3525391v24.3525391h-10.0195312v-41.7475589h7.7929688l20.0380859 23.9350586v-23.9350586z"/><path d="m237.0652008 30.9035797c0 4.5-1.4960938 8.152832-4.4873047 10.9589844-2.9921875 2.8071289-6.6689453 4.2094727-11.0283203 4.2094727-4.3613281 0-8.0361328-1.4023438-11.0283203-4.2094727-2.9921875-2.8061523-4.4882812-6.4589844-4.4882812-10.9589844 0-4.5917969 1.4960938-8.3144531 4.4882812-11.1674805 2.9921875-2.8525391 6.6669922-4.2788086 11.0283203-4.2788086 4.359375 0 8.0361328 1.4379883 11.0283203 4.3139648 2.991211 2.8764649 4.4873047 6.5869142 4.4873047 11.1323243zm-15.515625 7.3061524c1.7158203 0 3.0957031-.671875 4.1396484-2.0180664 1.0439453-1.3447266 1.5654297-3.1538086 1.5654297-5.4272461 0-2.2265625-.5214844-4.0234375-1.5654297-5.3920898-1.0439453-1.3676758-2.4238281-2.0527344-4.1396484-2.0527344-1.7636719 0-3.1660156.6850586-4.2099609 2.0527344-1.0439453 1.3686523-1.5654297 3.1655273-1.5654297 5.3920898 0 2.2734375.5214844 4.0825195 1.5654297 5.4272461 1.0439453 1.3461914 2.446289 2.0180664 4.2099609 2.0180664z"/><path d="m285.282959 16.1530914-10.4365235 29.2231446h-8.4882812l-3.8271484-13.0112305c-.4179688-1.3447266-.6259766-2.644043-.6259766-3.8964844h-.4179688c0 1.1132812-.2324219 2.4125977-.6953125 3.8964844l-3.8271484 13.0112305h-8.4189301l-10.4365234-29.2231445h10.5751953l3.6884766 14.8203125c.3232422 1.2993164.4863281 2.1567383.4863281 2.5742188h.3486328c0-.4628906.1845703-1.4370117.5566406-2.9223633l3.6171722-14.472168h8.6279297l3.6181641 14.472168c.3710938 1.6245117.5566406 2.5986328.5566406 2.9223633h.3486328c0-.6489258.1611328-1.5068359.4863281-2.5742188l3.6884766-14.8203125h10.5751954z"/></g></svg>