<svg enable-background="new 0 0 314.2372437 39.5587158" viewBox="0 0 314.2372437 39.5587158" xmlns="http://www.w3.org/2000/svg"><g fill="#fff"><path d="m5.0690608 14.6292114 4.5996099-4.75-6.3994143-1.0498047 1.0996091-3.2998047 5.7001958 3.25-.9003906-6.6000978h3.2998047l-1.1494141 6.6499023 5.8496094-3.2998047 1.1503906 3.2998047-6.5498047 1.0498047 4.6992188 4.75-2.7998047 1.9501953-2.9501953-5.8999023-2.8994145 5.8999023z"/><path d="m38.1696472 28.1795044v-12.3500977h4.0996094v21h-2.7001953l-.7001953-2.9501953h-.1494141c-1.4335938 2.300293-3.8339844 3.4501953-7.2001953 3.4501953-2.7001953 0-4.7998047-.8662109-6.2998047-2.6000977-1.5-1.7329102-2.25-4.0498047-2.25-6.949707v-11.9501953h4.0996094v11.5c0 1.9672852.4414062 3.5498047 1.3251953 4.75.8828125 1.2001953 2.2080078 1.7998047 3.9746094 1.7998047 1.8671875 0 3.3007812-.5996094 4.3007812-1.7998047s1.5-2.5 1.5-3.8999023z"/><path d="m47.3180847 34.7796021 1.6503906-2.800293c1.9326172 1.3671875 4.2832031 2.050293 7.0498047 2.050293 2.9326172 0 4.4003906-.9331055 4.4003906-2.800293 0-.7998047-.4501953-1.449707-1.3505859-1.949707-.8994141-.5-1.9921875-.9082031-3.2744141-1.2250977-1.2841797-.3164062-2.5585938-.6914062-3.8251953-1.125-1.2675781-.4331055-2.3496094-1.1166992-3.25-2.050293-.9003906-.9326172-1.3496094-2.0996094-1.3496094-3.5 0-1.7661133.6748047-3.2163086 2.0244141-4.3496094 1.3505859-1.1328125 3.3076172-1.7001953 5.875-1.7001953 1.6328125 0 3.1582031.1499023 4.5751953.4501953 1.4160156.2998047 2.4248047.5834961 3.0253906.8496094l.8994141.4501953-1.5 3.2998047c-1.7666016-1.1660156-3.9667969-1.75-6.5996094-1.75-2.9335938 0-4.4003906.8837891-4.4003906 2.6503906 0 .7333984.4501953 1.3334961 1.3505859 1.7998047.8994141.4672852 1.9912109.8422852 3.2744141 1.125 1.2832031.2836914 2.5664062.6337891 3.8505859 1.0498047 1.2822266.4174805 2.375 1.1088867 3.2744141 2.0751953.9003906.9672852 1.3505859 2.2001953 1.3505859 3.7001953 0 1.8334961-.6835938 3.3417969-2.0507812 4.5249023-1.3671875 1.1835938-3.4667969 1.7749023-6.2998047 1.7749023-1.1337891 0-2.2080078-.0917969-3.2246094-.2753906-1.0175781-.1835938-1.8427734-.3994141-2.4755859-.6494141s-1.1914062-.4916992-1.6748047-.7250977c-.4833984-.2329102-.8251953-.4501953-1.0244141-.6499023z"/><path d="m84.8190613 32.0794067 1.5 2.8500977c-.1669922.1669922-.4248047.3920898-.7753906.6748047-.3496094.2836914-1.1748047.6499023-2.4746094 1.1000977s-2.7333984.6748047-4.2998047.6748047c-3.3007812 0-5.9257812-1.0078125-7.875-3.0249023-1.9501953-2.0161133-2.9257812-4.6748047-2.9257812-7.9750977 0-3.199707.9169922-5.8413086 2.75-7.9248047 1.8330078-2.0830078 4.25-3.125 7.25-3.125 2.9667969 0 5.2753906.9750977 6.9257812 2.9248047 1.6494141 1.9501953 2.4746094 4.4589844 2.4746094 7.5253906v1.0498047h-15.3496094c.0996094 2.3334961.7822266 4.1083984 2.0498047 5.3251953 1.2666016 1.2167969 2.9160156 1.824707 4.9501953 1.824707 1.0996094 0 2.1328125-.1577148 3.0996094-.4750977.9667969-.3164062 1.6660156-.6411133 2.0996094-.9746094zm-6.9003906-13.3999023c-3.2001953 0-5.0996094 1.7172852-5.7001953 5.1499023h11.0507812c-.4677734-3.4326171-2.25-5.1499023-5.3505859-5.1499023z"/><path d="m120.1686707 23.8792114v12.9501953h-2.8505859l-.5-2.8500977h-.2001953c-1.4667969 2.2338867-3.8496094 3.3500977-7.1494141 3.3500977-2.4677734 0-4.4169922-.6328125-5.8505859-1.8999023-1.4335938-1.2666016-2.1494141-2.8666992-2.1494141-4.800293 0-2.0664062.8330078-3.7246094 2.5-4.9746094 1.6660156-1.25 4.0322266-1.875 7.0996094-1.875 1.7998047 0 3.5332031.2670898 5.2001953.7998047v-.75c0-3.3330078-1.9335938-5-5.7998047-5-.9677734 0-1.9335938.1337891-2.9003906.3999023-.9667969.2670898-1.6835938.5336914-2.1494141.800293l-.75.449707-1.5-3.25c2.0322266-1.2661133 4.6328125-1.8999023 7.7998047-1.8999023 3.0996094 0 5.4072266.7587891 6.9248047 2.2749023 1.5166015 1.5170899 2.2753906 3.6088868 2.2753906 6.2749024zm-3.9003907 5.1000977v-1.5c-1.3339844-.6328125-2.9335938-.949707-4.7998047-.949707-3.9677734 0-5.9501953 1.3168945-5.9501953 3.949707 0 1.1000977.4160156 2 1.25 2.7001953.8330078.699707 1.9824219 1.0498047 3.4501953 1.0498047 1.7324219 0 3.1748047-.5161133 4.3251953-1.5498047 1.1494141-1.0327148 1.7246094-2.2666016 1.7246094-3.7001953z"/><path d="m125.0173035 34.7796021 1.6503906-2.800293c1.9326172 1.3671875 4.2832031 2.050293 7.0498047 2.050293 2.9326172 0 4.4003906-.9331055 4.4003906-2.800293 0-.7998047-.4501953-1.449707-1.3505859-1.949707-.8994141-.5-1.9921875-.9082031-3.2744141-1.2250977-1.2841797-.3164062-2.5585938-.6914062-3.8251953-1.125-1.2675781-.4331055-2.3496094-1.1166992-3.25-2.050293-.9003906-.9326172-1.3496094-2.0996094-1.3496094-3.5 0-1.7661133.6748047-3.2163086 2.0244141-4.3496094 1.3505859-1.1328125 3.3076172-1.7001953 5.875-1.7001953 1.6328125 0 3.1582031.1499023 4.5751953.4501953 1.4160156.2998047 2.4248047.5834961 3.0253906.8496094l.8994141.4501953-1.5 3.2998047c-1.7666016-1.1660156-3.9667969-1.75-6.5996094-1.75-2.9335938 0-4.4003906.8837891-4.4003906 2.6503906 0 .7333984.4501953 1.3334961 1.3505859 1.7998047.8994141.4672852 1.9912109.8422852 3.2744141 1.125 1.2832031.2836914 2.5664062.6337891 3.8505859 1.0498047 1.2822266.4174805 2.375 1.1088867 3.2744141 2.0751953.9003906.9672852 1.3505859 2.2001953 1.3505859 3.7001953 0 1.8334961-.6835938 3.3417969-2.0507812 4.5249023-1.3671875 1.1835938-3.4667969 1.7749023-6.2998047 1.7749023-1.1337891 0-2.2080078-.0917969-3.2246094-.2753906-1.0175781-.1835938-1.8427734-.3994141-2.4755859-.6494141s-1.1914062-.4916992-1.6748047-.7250977c-.4833984-.2329102-.8251953-.4501953-1.0244141-.6499023z"/><path d="m173.5173035 18.4793091h.2001953v-11.8999024h4.0498047v30.25h-2.7998047l-.6005859-3.25h-.1494141c-.0673828.1000977-.1503906.2333984-.25.3999023-.1005859.1674805-.3671875.4672852-.8007812.8999023-.4335938.4335938-.9082031.8173828-1.4248047 1.1503906-.5166016.3334961-1.2421875.6333008-2.1748047.8994141-.9335938.2666016-1.9335938.4003906-3 .4003906-2.8339844 0-5.1835938-1.0078125-7.0498047-3.0249023-1.8671875-2.0166016-2.7998047-4.675293-2.7998047-7.9750977 0-3.2329102.9248047-5.875 2.7744141-7.9248047 1.8505859-2.050293 4.1748047-3.0751953 6.9755859-3.0751953 1 0 1.9326172.1083984 2.7998047.3251953.8662109.2167969 1.5498047.4833984 2.0498047.7998047.5.3173828.9248047.625 1.2753906.9248047.3496094.300293.5908203.550293.7246094.75zm-1.4501953 13.375c1.2666016-1.3828125 1.9003906-3.2250977 1.9003906-5.5249023s-.6337891-4.1416016-1.9003906-5.5249023c-1.2675781-1.3828125-2.8496094-2.0751953-4.75-2.0751953-1.8671875 0-3.4169922.7084961-4.6503906 2.125-1.2333984 1.4174805-1.8496094 3.2421875-1.8496094 5.4750977 0 2.2001953.6162109 4.0170898 1.8496094 5.4501953 1.2333984 1.4335938 2.7832031 2.1499023 4.6503906 2.1499023 1.9003906-.0000001 3.4824218-.6914064 4.75-2.0751954z"/><path d="m186.2673035 11.5296021c-.7333984 0-1.3583984-.2416992-1.875-.7250977-.5166016-.4829102-.7744141-1.0913086-.7744141-1.8251953 0-.7329102.2578125-1.3500977.7744141-1.8500977s1.1416016-.75 1.875-.75 1.3583984.25 1.875.75.7753906 1.1171875.7753906 1.8500977c0 .7338867-.25 1.3422852-.75 1.8251953-.5.4833984-1.1337891.7250977-1.9003906.7250977zm-2 25.2998046v-21h4.0498047v21z"/><path d="m205.4674988 15.7796021v3.3496094h-1.1494141c-1.5 0-2.7753906.5424805-3.8251953 1.625-1.0498047 1.0839844-1.5751953 2.4423828-1.5751953 4.0751953v12h-4.0996094v-21h2.75l.4501953 3.5498047h.25c.5-1.1328125 1.2822266-2.0161133 2.3496094-2.6499023 1.0664062-.6328125 2.2998047-.949707 3.7001953-.949707h1.1494141z"/><path d="m224.2174988 32.0794067 1.5 2.8500977c-.1669922.1669922-.4248047.3920898-.7753906.6748047-.3496094.2836914-1.1748047.6499023-2.4746094 1.1000977s-2.7333984.6748047-4.2998047.6748047c-3.3007812 0-5.9257812-1.0078125-7.875-3.0249023-1.9501953-2.0161133-2.9257812-4.6748047-2.9257812-7.9750977 0-3.199707.9169922-5.8413086 2.75-7.9248047 1.8330078-2.0830078 4.25-3.125 7.25-3.125 2.9667969 0 5.2753906.9750977 6.9257812 2.9248047 1.6494141 1.9501953 2.4746094 4.4589844 2.4746094 7.5253906v1.0498047h-15.3496094c.0996094 2.3334961.7822266 4.1083984 2.0498047 5.3251953 1.2666016 1.2167969 2.9160156 1.824707 4.9501953 1.824707 1.0996094 0 2.1328125-.1577148 3.0996094-.4750977.9667969-.3164062 1.6660156-.6411133 2.0996094-.9746094zm-6.9003906-13.3999023c-3.2001953 0-5.0996094 1.7172852-5.7001953 5.1499023h11.0507812c-.4677734-3.4326171-2.25-5.1499023-5.3505859-5.1499023z"/><path d="m240.8678894 37.3294067c-3.1337891 0-5.6835938-1.0078125-7.6503906-3.0249023-1.9667969-2.0166016-2.9501953-4.6577148-2.9501953-7.925293 0-3.2661133.9833984-5.9248047 2.9501953-7.9746094 1.9667969-2.050293 4.5166016-3.0751953 7.6503906-3.0751953 1.3662109 0 2.5908203.1499023 3.6748047.4501953 1.0830078.2998047 1.8076172.6171875 2.1748047.949707l.6005859.4501953-1.2001953 3.0498047c-1.3339844-1-3-1.5-5-1.5-1.9335938 0-3.5341797.6835938-4.7998047 2.050293-1.2675781 1.3671875-1.9003906 3.2333984-1.9003906 5.5996094 0 2.3671875.6328125 4.2172852 1.9003906 5.550293 1.265625 1.3334961 2.8662109 2 4.7998047 2 .8994141 0 1.7666016-.125 2.5996094-.375s1.4326172-.4916992 1.7998047-.7250977l.6005859-.3999023 1.0996094 3c-.1337891.1333008-.3417969.3085938-.625.5249023-.2832031.2172852-.9667969.5-2.0498047.8500977-1.0839844.3500977-2.3085938.5249023-3.6748047.5249023z"/><path d="m249.6676941 15.8294067h3.8496094v-6.3999023h4.1005859v6.3999023h6v3.25h-6v11.6000977c0 2.1000977.9658203 3.1499023 2.8994141 3.1499023.4335938 0 .8916016-.0751953 1.375-.2250977s.8583984-.3076172 1.125-.4750977l.4003906-.199707 1.25 2.8999023c-.1337891.1337891-.375.2998047-.7246094.5-.3505859.2001953-.9091797.4169922-1.6757812.6503906-.7666016.2324219-1.5498047.3496094-2.3496094.3496094-2.1669922 0-3.7753906-.5830078-4.8251953-1.75-1.0498047-1.1665039-1.5751953-2.7827148-1.5751953-4.8500977v-11.6499022h-3.8496094z"/><path d="m283.8180847 32.0794067 1.5 2.8500977c-.1669922.1669922-.4248047.3920898-.7753906.6748047-.3496094.2836914-1.1748047.6499023-2.4746094 1.1000977s-2.7333984.6748047-4.2998047.6748047c-3.3007812 0-5.9257812-1.0078125-7.875-3.0249023-1.9501953-2.0161133-2.9257812-4.6748047-2.9257812-7.9750977 0-3.199707.9169922-5.8413086 2.75-7.9248047 1.8330078-2.0830078 4.25-3.125 7.25-3.125 2.9667969 0 5.2753906.9750977 6.9257812 2.9248047 1.6494141 1.9501953 2.4746094 4.4589844 2.4746094 7.5253906v1.0498047h-15.3496094c.0996094 2.3334961.7822266 4.1083984 2.0498047 5.3251953 1.2666016 1.2167969 2.9160156 1.824707 4.9501953 1.824707 1.0996094 0 2.1328125-.1577148 3.0996094-.4750977.9667969-.3164062 1.6660156-.6411133 2.0996094-.9746094zm-6.9003906-13.3999023c-3.2001953 0-5.0996094 1.7172852-5.7001953 5.1499023h11.0507812c-.4677734-3.4326171-2.25-5.1499023-5.3505859-5.1499023z"/><path d="m306.7179871 18.4793091h.2001953v-11.8999024h4.0498047v30.25h-2.7998047l-.6005859-3.25h-.1494141c-.0673828.1000977-.1503906.2333984-.25.3999023-.1005859.1674805-.3671875.4672852-.8007812.8999023-.4335938.4335938-.9082031.8173828-1.4248047 1.1503906-.5170898.3334961-1.2426758.6333008-2.175293.8994141-.9335938.2666016-1.9335938.4003906-3 .4003906-2.8339844 0-5.1835938-1.0078125-7.0498047-3.0249023-1.8671875-2.0166016-2.7998047-4.675293-2.7998047-7.9750977 0-3.2329102.9248047-5.875 2.7744141-7.9248047 1.8505859-2.050293 4.1748047-3.0751953 6.9755859-3.0751953 1 0 1.9326172.1083984 2.7998047.3251953.8662109.2167969 1.5498047.4833984 2.0498047.7998047.5004883.3173828.925293.625 1.2758789.9248047.3496094.300293.5908203.550293.7246094.75zm-1.4501954 13.375c1.2666016-1.3828125 1.9003906-3.2250977 1.9003906-5.5249023s-.6337891-4.1416016-1.9003906-5.5249023c-1.2680664-1.3828125-2.8500977-2.0751953-4.7504883-2.0751953-1.8671875 0-3.4169922.7084961-4.6503906 2.125-1.2333984 1.4174805-1.8496094 3.2421875-1.8496094 5.4750977 0 2.2001953.6162109 4.0170898 1.8496094 5.4501953 1.2333984 1.4335938 2.7832031 2.1499023 4.6503906 2.1499023 1.9003907-.0000001 3.4824219-.6914064 4.7504883-2.0751954z"/></g></svg>