<?xml version="1.0" encoding="utf-8"?>
<!-- Generator: Adobe Illustrator 26.1.0, SVG Export Plug-In . SVG Version: 6.00 Build 0)  -->
<svg version="1.1" id="Layer_1" xmlns="http://www.w3.org/2000/svg" xmlns:xlink="http://www.w3.org/1999/xlink" x="0px" y="0px"
	 viewBox="0 0 1570.8544922 507.3042603" style="enable-background:new 0 0 1570.8544922 507.3042603;" xml:space="preserve">
<style type="text/css">
	.st0{fill:#FFFFFF;}
</style>
<g>
	<path class="st0" d="M91.0939941,432.2627258c0,11.4814453-3.7587891,20.8017578-11.2734375,27.9609375
		c-7.5175781,7.1630859-16.71875,10.7412109-27.6064453,10.7412109c-11.0068359,0-20.2695312-3.578125-27.7841797-10.7412109
		c-7.5175781-7.1591797-11.2734385-16.4794922-11.2734385-27.9609375c0-11.5986328,3.7558603-21.0654297,11.2734385-28.4052734
		c7.5146484-7.3378906,16.7773438-11.0078125,27.7841797-11.0078125c10.8876953,0,20.0888672,3.6699219,27.6064453,11.0078125
		C87.3352051,411.1972961,91.0939941,420.664093,91.0939941,432.2627258z M52.2141113,454.0986633
		c5.2070312,0,9.4980469-2.0107422,12.8710938-6.0361328c3.3730469-4.0214844,5.0595703-9.4091797,5.0595703-16.1552734
		c0-6.6269531-1.6865234-11.9833984-5.0595703-16.0664062c-3.3730469-4.0839844-7.6640625-6.125-12.8710938-6.125
		c-5.3261719,0-9.6757812,2.0410156-13.0488281,6.125c-3.3730469,4.0830078-5.0595703,9.4394531-5.0595703,16.0664062
		c0,6.7460938,1.65625,12.1337891,4.9707031,16.1552734C42.388916,452.0879211,46.7687988,454.0986633,52.2141113,454.0986633z"/>
	<path class="st0" d="M152.6975098,411.1357727h-19.7060547v58.0537109h-21.3037109v-58.0537109H98.904541v-16.5107422h12.7832031
		v-4.4384766c0-9.3476562,2.4550781-16.6269531,7.3671875-21.8359375
		c4.9101562-5.2070312,11.9228516-7.8115234,21.0380859-7.8115234c3.1953125,0,6.2714844,0.296875,9.2314453,0.8876953
		c2.9570312,0.59375,5.0878906,1.1845703,6.3916016,1.7753906l2.1298828,0.8876953l-6.5683594,15.7998047
		c-2.1308594-1.0644531-4.8544922-1.5976562-8.1669922-1.5976562c-3.0791016,0-5.5341797,0.9765625-7.3671875,2.9296875
		c-1.8369141,1.953125-2.7519531,4.5878906-2.7519531,7.9003906v5.5029297h19.7060547V411.1357727z"/>
	<path class="st0" d="M190.3342285,394.6250305h12.9599609v-22.7236328h21.3037109v22.7236328h18.2861328v16.5107422h-18.2861328
		v33.3769531c0,5.4453125,2.6630859,8.1660156,7.9892578,8.1660156c1.3007812,0,2.6025391-0.2050781,3.90625-0.6210938
		c1.3007812-0.4130859,2.3076172-0.8574219,3.0175781-1.3320312l1.0654297-0.5322266l6.0361328,14.7353516
		c-5.5644531,4.0253906-11.9560547,6.0361328-19.1738281,6.0361328c-8.2861328,0-14.3798828-2.3076172-18.2861328-6.9238281
		c-3.9052734-4.6162109-5.8583984-10.8876953-5.8583984-18.8183594v-34.0869141h-12.9599609V394.6250305z"/>
	<path class="st0" d="M300.5822754,394.6250305v17.9316406h-3.90625c-5.0898438,0-9.2041016,1.6279297-12.3378906,4.8818359
		c-3.1376953,3.2568359-4.7050781,7.6640625-4.7050781,13.2265625v38.5244141h-21.3037109v-74.5644531h13.3144531
		l3.0185547,11.0078125h1.0654297c3.9052734-7.3378906,10.8291016-11.0078125,20.7714844-11.0078125H300.5822754z"/>
	<path class="st0" d="M384.7336426,432.2627258c0,11.4814453-3.7587891,20.8017578-11.2734375,27.9609375
		c-7.5175781,7.1630859-16.71875,10.7412109-27.6064453,10.7412109c-11.0068359,0-20.2695312-3.578125-27.7841797-10.7412109
		c-7.5175781-7.1591797-11.2734375-16.4794922-11.2734375-27.9609375c0-11.5986328,3.7558594-21.0654297,11.2734375-28.4052734
		c7.5146484-7.3378906,16.7773438-11.0078125,27.7841797-11.0078125c10.8876953,0,20.0888672,3.6699219,27.6064453,11.0078125
		C380.9748535,411.1972961,384.7336426,420.664093,384.7336426,432.2627258z M345.8537598,454.0986633
		c5.2070312,0,9.4980469-2.0107422,12.8710938-6.0361328c3.3730469-4.0214844,5.0595703-9.4091797,5.0595703-16.1552734
		c0-6.6269531-1.6865234-11.9833984-5.0595703-16.0664062c-3.3730469-4.0839844-7.6640625-6.125-12.8710938-6.125
		c-5.3261719,0-9.6757812,2.0410156-13.0488281,6.125c-3.3730469,4.0830078-5.0595703,9.4394531-5.0595703,16.0664062
		c0,6.7460938,1.65625,12.1337891,4.9707031,16.1552734C336.0285645,452.0879211,340.4084473,454.0986633,345.8537598,454.0986633z"
		/>
	<path class="st0" d="M422.0158691,461.3779602h-0.8876953v35.5068359h-21.3037109V394.6250305h13.6699219l3.1953125,10.4746094
		h1.0654297c0.1162109-0.3544922,0.3828125-0.7988281,0.7988281-1.3310547
		c0.4130859-0.5332031,1.3007812-1.5097656,2.6630859-2.9296875c1.359375-1.4199219,2.8984375-2.6630859,4.6162109-3.7285156
		c1.7138672-1.0644531,4.0527344-2.0410156,7.0117188-2.9287109c2.9580078-0.8876953,6.1533203-1.3320312,9.5869141-1.3320312
		c10.0585938,0,18.3447266,3.5507812,24.8554688,10.6523438c6.5078125,7.1015625,9.7636719,16.5107422,9.7636719,28.2275391
		c0,11.4814453-3.2255859,20.890625-9.6748047,28.2285156c-6.453125,7.3398438-14.5302734,11.0068359-24.2333984,11.0068359
		c-3.0791016,0-5.9199219-0.3271484-8.5224609-0.9765625c-2.6044922-0.6513672-4.6455078-1.4482422-6.1240234-2.3964844
		c-1.4814453-0.9462891-2.7519531-1.8916016-3.8173828-2.8408203c-1.0654297-0.9453125-1.7753906-1.7138672-2.1308594-2.3076172
		L422.0158691,461.3779602z M420.0627441,432.0849915c0,6.5107422,1.65625,11.6894531,4.9716797,15.5341797
		c3.3115234,3.8476562,7.5722656,5.7695312,12.7822266,5.7695312c5.2060547,0,9.4677734-1.9804688,12.7822266-5.9472656
		c3.3125-3.9638672,4.9707031-9.0820312,4.9707031-15.3564453c0-6.2724609-1.6582031-11.4511719-4.9707031-15.5341797
		c-3.3144531-4.0830078-7.5761719-6.125-12.7822266-6.125c-5.2099609,0-9.4707031,1.953125-12.7822266,5.8583984
		C421.7189941,420.1904602,420.0627441,425.4580383,420.0627441,432.0849915z"/>
	<path class="st0" d="M511.9367676,379.5351868c-2.4277344,2.2490234-5.4150391,3.3730469-8.9658203,3.3730469
		s-6.5107422-1.1240234-8.8769531-3.3730469c-2.3681641-2.2470703-3.5498047-5.1484375-3.5498047-8.6992188
		s1.1816406-6.4804688,3.5498047-8.7880859c2.3662109-2.3076172,5.3261719-3.4619141,8.8769531-3.4619141
		s6.5380859,1.1542969,8.9658203,3.4619141c2.4238281,2.3076172,3.6396484,5.2373047,3.6396484,8.7880859
		S514.3605957,377.2881165,511.9367676,379.5351868z M492.1418457,469.1894836v-74.5644531h21.3037109v74.5644531H492.1418457z"/>
	<path class="st0" d="M567.9475098,470.9648743c-11.7167969,0-21.1875-3.6669922-28.4052734-11.0068359
		c-7.2207031-7.3378906-10.8291016-16.6884766-10.8291016-28.0507812s3.6083984-20.7099609,10.8291016-28.0498047
		c7.2177734-7.3378906,16.6884766-11.0078125,28.4052734-11.0078125c4.7324219,0,9.0546875,0.5634766,12.9599609,1.6865234
		c3.90625,1.1269531,6.6269531,2.2197266,8.1669922,3.2851562l2.3076172,1.7753906l-5.5029297,15.2675781
		c-4.6162109-2.9570312-9.9423828-4.4384766-15.9785156-4.4384766c-5.7998047,0-10.5351562,1.953125-14.2021484,5.8583984
		c-3.6699219,3.90625-5.5039062,9.1152344-5.5039062,15.6230469c0,6.6298828,1.8339844,11.8671875,5.5039062,15.7119141
		c3.6669922,3.8476562,8.4023438,5.7695312,14.2021484,5.7695312c2.7216797,0,5.4150391-0.3828125,8.078125-1.1533203
		c2.6630859-0.7685547,4.6435547-1.5097656,5.9472656-2.2197266l1.953125-1.0654297l5.3261719,15.0908203
		c-0.59375,0.4746094-1.4511719,1.0957031-2.5742188,1.8642578c-1.1269531,0.7705078-3.6708984,1.8056641-7.6347656,3.1064453
		C577.029541,470.3125305,572.6799316,470.9648743,567.9475098,470.9648743z"/>
	<path class="st0" d="M669.8527832,423.2080383v45.9814453H655.295166l-2.8408203-9.4091797h-0.8876953
		c-4.6152344,7.4560547-12.6044922,11.1845703-23.9667969,11.1845703c-8.4052734,0-15.0625-2.21875-19.9726562-6.6572266
		c-4.9121094-4.4384766-7.3671875-10.0888672-7.3671875-16.9550781c0-7.6923828,2.8681641-13.6972656,8.6103516-18.0195312
		c5.7392578-4.3193359,14.171875-6.4794922,25.2988281-6.4794922c5.6806641,0,10.7685547,0.6513672,15.2675781,1.9521484v-2.3076172
		c0-8.4023438-5.9199219-12.6044922-17.7539062-12.6044922c-3.1953125,0-6.4208984,0.4433594-9.6748047,1.3310547
		c-3.2568359,0.8876953-5.7119141,1.7480469-7.3681641,2.5742188l-2.4853516,1.4199219l-6.7460938-15.6220703
		c0.8261719-0.4716797,2.0107422-1.09375,3.5507812-1.8642578c1.5361328-0.7685547,4.9404297-1.7753906,10.2080078-3.0185547
		c5.2646484-1.2421875,10.7412109-1.8642578,16.421875-1.8642578c11.0068359,0,19.4677734,2.7519531,25.3876953,8.2558594
		C666.8928223,406.608429,669.8527832,413.976593,669.8527832,423.2080383z M633.1037598,456.4072571
		c4.4960938,0,8.3134766-1.2705078,11.4511719-3.8173828c3.1337891-2.5439453,4.7626953-5.7695312,4.8818359-9.6757812v-6.0361328
		c-2.8408203-1.5361328-7.1015625-2.3076172-12.7822266-2.3076172c-5.3261719,0-9.3818359,1.0068359-12.1611328,3.0185547
		c-2.7822266,2.0136719-4.171875,4.7929688-4.171875,8.34375c0,3.0791016,1.1533203,5.5917969,3.4619141,7.5449219
		C626.0910645,455.4306946,629.1975098,456.4072571,633.1037598,456.4072571z"/>
	<path class="st0" d="M688.6711426,469.1894836V361.7812805h21.3046875v107.4082031H688.6711426z"/>
	<path class="st0" d="M814.0090332,411.1357727h-19.7060547v58.0537109h-21.3037109v-58.0537109h-12.7832031v-16.5107422h12.7832031
		v-4.4384766c0-9.3476562,2.4550781-16.6269531,7.3671875-21.8359375
		c4.9101562-5.2070312,11.9228516-7.8115234,21.0380859-7.8115234c3.1953125,0,6.2714844,0.296875,9.2314453,0.8876953
		c2.9570312,0.59375,5.0878906,1.1845703,6.3916016,1.7753906l2.1298828,0.8876953l-6.5683594,15.7998047
		c-2.1308594-1.0644531-4.8544922-1.5976562-8.1669922-1.5976562c-3.0791016,0-5.5341797,0.9765625-7.3671875,2.9296875
		c-1.8369141,1.953125-2.7519531,4.5878906-2.7519531,7.9003906v5.5029297h19.7060547V411.1357727z"/>
	<path class="st0" d="M867.8024902,394.6250305v17.9316406h-3.90625c-5.0898438,0-9.2041016,1.6279297-12.3378906,4.8818359
		c-3.1381836,3.2568359-4.7055664,7.6640625-4.7055664,13.2265625v38.5244141h-21.3037109v-74.5644531h13.3144531
		l3.0185547,11.0078125h1.0654297c3.9052734-7.3378906,10.8295898-11.0078125,20.7719727-11.0078125H867.8024902z"/>
	<path class="st0" d="M943.2536621,423.2080383v45.9814453h-14.5576172l-2.8408203-9.4091797h-0.8876953
		c-4.6152344,7.4560547-12.6044922,11.1845703-23.9667969,11.1845703c-8.4052734,0-15.0625-2.21875-19.9726562-6.6572266
		c-4.9121094-4.4384766-7.3671875-10.0888672-7.3671875-16.9550781c0-7.6923828,2.8681641-13.6972656,8.6103516-18.0195312
		c5.7392578-4.3193359,14.171875-6.4794922,25.2988281-6.4794922c5.6806641,0,10.7685547,0.6513672,15.2675781,1.9521484v-2.3076172
		c0-8.4023438-5.9199219-12.6044922-17.7539062-12.6044922c-3.1953125,0-6.4208984,0.4433594-9.6748047,1.3310547
		c-3.2568359,0.8876953-5.7119141,1.7480469-7.3681641,2.5742188l-2.4853516,1.4199219l-6.7460938-15.6220703
		c0.8261719-0.4716797,2.0107422-1.09375,3.5507812-1.8642578c1.5361328-0.7685547,4.9404297-1.7753906,10.2080078-3.0185547
		c5.2646484-1.2421875,10.7412109-1.8642578,16.421875-1.8642578c11.0068359,0,19.4677734,2.7519531,25.3876953,8.2558594
		C940.2937012,406.608429,943.2536621,413.976593,943.2536621,423.2080383z M906.5046387,456.4072571
		c4.4960938,0,8.3134766-1.2705078,11.4511719-3.8173828c3.1337891-2.5439453,4.7626953-5.7695312,4.8818359-9.6757812v-6.0361328
		c-2.8408203-1.5361328-7.1015625-2.3076172-12.7822266-2.3076172c-5.3261719,0-9.3818359,1.0068359-12.1611328,3.0185547
		c-2.7822266,2.0136719-4.171875,4.7929688-4.171875,8.34375c0,3.0791016,1.1533203,5.5917969,3.4619141,7.5449219
		C899.4919434,455.4306946,902.5983887,456.4072571,906.5046387,456.4072571z"/>
	<path class="st0" d="M1032.197998,410.6035461h-9.7636719v0.3544922c1.5361328,1.4208984,2.3076172,4.5576172,2.3076172,9.4091797
		c0,6.7470703-2.7236328,12.4277344-8.1669922,17.0439453c-5.4453125,4.6152344-13.2568359,6.9238281-23.4335938,6.9238281
		c-4.7353516,0-9.1738281-0.6494141-13.3154297-1.953125c-2.3691406,1.3037109-3.5507812,3.0185547-3.5507812,5.1484375
		c0,1.1845703,0.3554688,2.1611328,1.0654297,2.9296875c0.7099609,0.7705078,2.4853516,1.4814453,5.3261719,2.1298828
		c2.8398438,0.6523438,6.9814453,1.0957031,12.4267578,1.3320312c14.0839844,0.59375,23.90625,2.6044922,29.4707031,6.0361328
		c5.5615234,3.4335938,8.3447266,8.8759766,8.3447266,16.3330078c0,7.2177734-3.4345703,13.2841797-10.2978516,18.1972656
		c-6.8652344,4.9091797-16.5712891,7.3671875-29.1152344,7.3671875c-12.6660156,0-22.0136719-1.7753906-28.0498047-5.3261719
		s-9.0546875-8.4042969-9.0546875-14.5576172c0-6.984375,3.7861328-12.546875,11.3623047-16.6875
		c-6.6298828-3.1962891-9.9423828-8.2832031-9.9423828-15.2685547c0-5.6806641,3.5507812-10.4746094,10.6523438-14.3798828
		c-4.6162109-4.3779297-6.9238281-9.8232422-6.9238281-16.3330078c0-7.6923828,2.8681641-13.9648438,8.6103516-18.8183594
		c5.7392578-4.8525391,13.4042969-7.2792969,22.9912109-7.2792969c4.2607422,0,8.1660156,0.4746094,11.7167969,1.4199219h27.3398438
		V410.6035461z M995.0935059,470.2549133c-3.3144531-0.1191406-6.984375-0.4160156-11.0068359-0.8876953
		c-4.8544922,2.4853516-7.2792969,5.9169922-7.2792969,10.296875c0,5.6806641,5.5625,8.5214844,16.6884766,8.5214844
		c6.1523438,0,10.7685547-0.8291016,13.8476562-2.4853516c3.0761719-1.6591797,4.6162109-3.8476562,4.6162109-6.5693359
		c0-2.6044922-1.2148438-4.6767578-3.6396484-6.2128906C1005.8933105,471.3779602,1001.4851074,470.4902649,995.0935059,470.2549133
		z M993.1413574,407.0527649c-3.7900391,0-6.7773438,1.1542969-8.9658203,3.4619141
		c-2.1914062,2.3076172-3.2841797,5.1210938-3.2841797,8.4326172c0,3.4345703,1.0927734,6.2744141,3.2841797,8.5214844
		c2.1884766,2.25,5.1757812,3.3730469,8.9658203,3.3730469c3.9052734,0,7.0117188-1.1230469,9.3203125-3.3730469
		c2.3076172-2.2470703,3.4619141-5.0869141,3.4619141-8.5214844c0-3.3115234-1.1542969-6.125-3.4619141-8.4326172
		C1000.1530762,408.2070618,997.0466309,407.0527649,993.1413574,407.0527649z"/>
	<path class="st0" d="M1088.2995605,394.6250305v17.9316406h-3.90625c-5.0898438,0-9.2041016,1.6279297-12.3378906,4.8818359
		c-3.1376953,3.2568359-4.7050781,7.6640625-4.7050781,13.2265625v38.5244141h-21.3037109v-74.5644531h13.3144531
		l3.0185547,11.0078125h1.0654297c3.9052734-7.3378906,10.8291016-11.0078125,20.7714844-11.0078125H1088.2995605z"/>
	<path class="st0" d="M1163.7507324,423.2080383v45.9814453h-14.5576172l-2.8408203-9.4091797h-0.8876953
		c-4.6152344,7.4560547-12.6044922,11.1845703-23.9667969,11.1845703c-8.4052734,0-15.0625-2.21875-19.9726562-6.6572266
		c-4.9121094-4.4384766-7.3671875-10.0888672-7.3671875-16.9550781c0-7.6923828,2.8681641-13.6972656,8.6103516-18.0195312
		c5.7392578-4.3193359,14.171875-6.4794922,25.2988281-6.4794922c5.6806641,0,10.7685547,0.6513672,15.2675781,1.9521484v-2.3076172
		c0-8.4023438-5.9199219-12.6044922-17.7539062-12.6044922c-3.1953125,0-6.4208984,0.4433594-9.6748047,1.3310547
		c-3.2568359,0.8876953-5.7119141,1.7480469-7.3681641,2.5742188l-2.4853516,1.4199219l-6.7460938-15.6220703
		c0.8261719-0.4716797,2.0107422-1.09375,3.5507812-1.8642578c1.5361328-0.7685547,4.9404297-1.7753906,10.2080078-3.0185547
		c5.2646484-1.2421875,10.7412109-1.8642578,16.421875-1.8642578c11.0068359,0,19.4677734,2.7519531,25.3876953,8.2558594
		C1160.7907715,406.608429,1163.7507324,413.976593,1163.7507324,423.2080383z M1127.001709,456.4072571
		c4.4960938,0,8.3134766-1.2705078,11.4511719-3.8173828c3.1337891-2.5439453,4.7626953-5.7695312,4.8818359-9.6757812v-6.0361328
		c-2.8408203-1.5361328-7.1015625-2.3076172-12.7822266-2.3076172c-5.3261719,0-9.3818359,1.0068359-12.1611328,3.0185547
		c-2.7822266,2.0136719-4.171875,4.7929688-4.171875,8.34375c0,3.0791016,1.1533203,5.5917969,3.4619141,7.5449219
		C1119.9890137,455.4306946,1123.095459,456.4072571,1127.001709,456.4072571z"/>
	<path class="st0" d="M1203.6960449,426.5810852v42.6083984h-21.3037109v-74.5644531h13.3144531l3.0185547,10.4746094h1.2421875
		c2.9570312-4.2607422,6.2724609-7.3955078,9.9423828-9.4091797c3.6669922-2.0107422,8.4023438-3.0175781,14.2021484-3.0175781
		c9.5869141,0,17.1601562,3.0175781,22.7246094,9.0537109c5.5615234,6.0361328,8.34375,14.0859375,8.34375,24.1445312v43.3183594
		h-21.3037109v-41.5429688c0-4.7324219-1.3623047-8.6376953-4.0830078-11.7167969
		c-2.7246094-3.0771484-6.3916016-4.6162109-11.0068359-4.6162109c-4.6162109,0-8.2861328,1.5390625-11.0078125,4.6162109
		C1205.0554199,419.0088196,1203.6960449,422.5596008,1203.6960449,426.5810852z"/>
	<path class="st0" d="M1308.6179199,470.9648743c-11.7167969,0-21.1875-3.6669922-28.4052734-11.0068359
		c-7.2207031-7.3378906-10.8291016-16.6884766-10.8291016-28.0507812s3.6083984-20.7099609,10.8291016-28.0498047
		c7.2177734-7.3378906,16.6884766-11.0078125,28.4052734-11.0078125c4.7324219,0,9.0546875,0.5634766,12.9599609,1.6865234
		c3.90625,1.1269531,6.6269531,2.2197266,8.1669922,3.2851562l2.3076172,1.7753906l-5.5029297,15.2675781
		c-4.6162109-2.9570312-9.9423828-4.4384766-15.9785156-4.4384766c-5.7998047,0-10.5351562,1.953125-14.2021484,5.8583984
		c-3.6699219,3.90625-5.5039062,9.1152344-5.5039062,15.6230469c0,6.6298828,1.8339844,11.8671875,5.5039062,15.7119141
		c3.6669922,3.8476562,8.4023438,5.7695312,14.2021484,5.7695312c2.7216797,0,5.4150391-0.3828125,8.078125-1.1533203
		c2.6630859-0.7685547,4.6435547-1.5097656,5.9472656-2.2197266l1.953125-1.0654297l5.3261719,15.0908203
		c-0.59375,0.4746094-1.4511719,1.0957031-2.5742188,1.8642578c-1.1269531,0.7705078-3.6708984,1.8056641-7.6347656,3.1064453
		C1317.6999512,470.3125305,1313.3503418,470.9648743,1308.6179199,470.9648743z"/>
	<path class="st0" d="M1400.048584,448.2402649l7.4560547,14.0253906c-0.7099609,0.7099609-1.7470703,1.5703125-3.1064453,2.5742188
		c-1.3623047,1.0068359-4.4384766,2.3388672-9.2324219,3.9941406c-4.7929688,1.65625-10.0302734,2.4863281-15.7109375,2.4863281
		c-12.3115234,0-22.0449219-3.6982422-29.2050781-11.0966797c-7.1621094-7.3955078-10.7402344-16.8349609-10.7402344-28.3164062
		c0-11.2431641,3.4316406-20.5634766,10.296875-27.9619141c6.8623047-7.3945312,15.7392578-11.0957031,26.6298828-11.0957031
		c10.7685547,0,19.2626953,3.3730469,25.4765625,10.1201172c6.2128906,6.7460938,9.3203125,15.7421875,9.3203125,26.984375
		l-0.1777344,5.859375h-50.9521484c1.1816406,12.4267578,8.1054688,18.640625,20.7714844,18.640625
		c3.4316406,0,6.7460938-0.5019531,9.9414062-1.5087891c3.1962891-1.0039062,5.5039062-2.0419922,6.9238281-3.1074219
		L1400.048584,448.2402649z M1375.9040527,408.8281555c-8.4052734,0-13.4931641,4.7929688-15.2685547,14.3798828h29.8261719
		C1389.5124512,413.6211243,1384.6608887,408.8281555,1375.9040527,408.8281555z"/>
	<path class="st0" d="M1443.9870605,467.414093c-2.4267578,2.3662109-5.3564453,3.5507812-8.7871094,3.5507812
		c-3.4345703,0-6.3642578-1.1845703-8.7880859-3.5507812c-2.4277344-2.3662109-3.6396484-5.2646484-3.6396484-8.6992188
		c0-3.4316406,1.2119141-6.3603516,3.6396484-8.7880859c2.4238281-2.4238281,5.3535156-3.6386719,8.7880859-3.6386719
		c3.4306641,0,6.3603516,1.2148438,8.7871094,3.6386719c2.4248047,2.4277344,3.6396484,5.3564453,3.6396484,8.7880859
		C1447.626709,462.1494446,1446.4118652,465.0478821,1443.9870605,467.414093z"/>
</g>
</svg>
