<?xml version="1.0" encoding="utf-8"?>
<!-- Generator: Adobe Illustrator 26.1.0, SVG Export Plug-In . SVG Version: 6.00 Build 0)  -->
<svg version="1.1" id="Layer_1" xmlns="http://www.w3.org/2000/svg" xmlns:xlink="http://www.w3.org/1999/xlink" x="0px" y="0px"
	 viewBox="0 0 1570.8544922 507.3042603" style="enable-background:new 0 0 1570.8544922 507.3042603;" xml:space="preserve">
<style type="text/css">
	.st0{fill:#FFFFFF;}
</style>
<g>
	<path class="st0" d="M41.5617676,22.6699524v49.3540039l45.4492188-49.3540039h25.9199219v2.3076172L73.3400879,67.9409485
		l39.7675781,58.940918v2.3081055H89.1408691C76.239502,110.0161438,66.1193848,94.9258118,58.7824707,83.9189758
		l-17.2207031,18.6411133v26.6298828H20.0803223V22.6699524H41.5617676z"/>
	<path class="st0" d="M144.2658691,39.535675c-2.4277344,2.2495117-5.4150391,3.3730469-8.9658203,3.3730469
		s-6.5107422-1.1235352-8.8769531-3.3730469c-2.3681641-2.2470703-3.5498047-5.1489258-3.5498047-8.6992188
		c0-3.5507812,1.1816406-6.4799805,3.5498047-8.7880859c2.3662109-2.3081055,5.3261719-3.4619141,8.8769531-3.4619141
		s6.5380859,1.1538086,8.9658203,3.4619141c2.4238281,2.3081055,3.6396484,5.2373047,3.6396484,8.7880859
		C147.9055176,34.3867493,146.6896973,37.2886047,144.2658691,39.535675z M124.4709473,129.1899719V54.6260071h21.3037109
		v74.5639648H124.4709473z"/>
	<path class="st0" d="M165.6574707,129.1899719V21.7822571h21.3046875v107.4077148H165.6574707z"/>
	<path class="st0" d="M206.6682129,129.1899719V21.7822571h21.3046875v107.4077148H206.6682129z"/>
	<path class="st0" d="M320.1115723,111.0815735c13.9638672,0,20.7714844-8.815918,20.4160156-26.4526367v-2.3081055
		c-5.9189453,5.6811523-13.3759766,8.5219727-22.3691406,8.5219727c-11.3623047,0-20.4775391-2.9570312-27.3398438-8.8769531
		c-6.8652344-5.9165039-10.296875-13.9638672-10.296875-24.1445312c0-10.6518555,3.8447266-19.4091797,11.5390625-26.2749023
		c7.6923828-6.862793,17.2792969-10.296875,28.7607422-10.296875c12.8994141,0,23.4931641,4.2607422,31.7783203,12.7822266
		c8.2832031,8.5219727,12.4277344,21.7783203,12.4277344,39.7675781c0,17.753418-3.9667969,31.809082-11.8945312,42.1645508
		c-7.9306641,10.3579102-18.8798828,15.5336914-32.84375,15.5336914c-4.5,0-8.7607422-0.4433594-12.7822266-1.3310547
		c-4.0253906-0.8876953-7.2792969-1.980957-9.7646484-3.284668c-2.4853516-1.3007812-4.6767578-2.6323242-6.5693359-3.9941406
		c-1.8945312-1.359375-3.2558594-2.4550781-4.0830078-3.284668l-1.0654297-1.4204102l11.7177734-17.0429688
		c2.7207031,2.3691406,4.6435547,3.9946289,5.7695312,4.8823242c1.1240234,0.8876953,3.2841797,1.9526367,6.4804688,3.1953125
		C313.1877441,110.4599915,316.560791,111.0815735,320.1115723,111.0815735z M339.9953613,57.2886047
		c-1.7753906-11.0068359-7.9892578-16.5102539-18.640625-16.5102539c-5.3261719,0-9.6484375,1.5976562-12.9599609,4.793457
		c-3.3154297,3.1953125-4.9716797,7.1621094-4.9716797,11.8945312c0,4.6157227,1.6259766,8.4633789,4.8828125,11.5395508
		c3.2539062,3.0791016,7.5449219,4.6162109,12.8710938,4.6162109s9.7333984-1.5371094,13.2255859-4.6162109
		C337.8928223,65.929718,339.7570801,62.0239563,339.9953613,57.2886047z"/>
	<path class="st0" d="M417.9328613,111.0815735c13.9638672,0,20.7714844-8.815918,20.4160156-26.4526367v-2.3081055
		c-5.9189453,5.6811523-13.3759766,8.5219727-22.3691406,8.5219727c-11.3623047,0-20.4775391-2.9570312-27.3398438-8.8769531
		c-6.8652344-5.9165039-10.296875-13.9638672-10.296875-24.1445312c0-10.6518555,3.8447266-19.4091797,11.5390625-26.2749023
		c7.6923828-6.862793,17.2792969-10.296875,28.7607422-10.296875c12.8994141,0,23.4931641,4.2607422,31.7783203,12.7822266
		c8.2832031,8.5219727,12.4277344,21.7783203,12.4277344,39.7675781c0,17.753418-3.9667969,31.809082-11.8945312,42.1645508
		c-7.9306641,10.3579102-18.8798828,15.5336914-32.84375,15.5336914c-4.5,0-8.7607422-0.4433594-12.7822266-1.3310547
		c-4.0253906-0.8876953-7.2792969-1.980957-9.7646484-3.284668c-2.4853516-1.3007812-4.6767578-2.6323242-6.5693359-3.9941406
		c-1.8945312-1.359375-3.2558594-2.4550781-4.0830078-3.284668l-1.0654297-1.4204102l11.7177734-17.0429688
		c2.7207031,2.3691406,4.6435547,3.9946289,5.7695312,4.8823242c1.1240234,0.8876953,3.2841797,1.9526367,6.4804688,3.1953125
		C411.0090332,110.4599915,414.3820801,111.0815735,417.9328613,111.0815735z M437.8166504,57.2886047
		c-1.7753906-11.0068359-7.9892578-16.5102539-18.640625-16.5102539c-5.3261719,0-9.6484375,1.5976562-12.9599609,4.793457
		c-3.3154297,3.1953125-4.9716797,7.1621094-4.9716797,11.8945312c0,4.6157227,1.6259766,8.4633789,4.8828125,11.5395508
		c3.2539062,3.0791016,7.5449219,4.6162109,12.8710938,4.6162109s9.7333984-1.5371094,13.2255859-4.6162109
		C435.7141113,65.929718,437.5783691,62.0239563,437.8166504,57.2886047z"/>
	<path class="st0" d="M494.8928223,127.4145813c-2.4267578,2.3662109-5.3564453,3.5507812-8.7871094,3.5507812
		c-3.4345703,0-6.3642578-1.1845703-8.7880859-3.5507812c-2.4277344-2.3662109-3.6396484-5.2651367-3.6396484-8.6992188
		c0-3.4311523,1.2119141-6.3603516,3.6396484-8.7875977c2.4238281-2.4248047,5.3535156-3.6396484,8.7880859-3.6396484
		c3.4306641,0,6.3603516,1.2148438,8.7871094,3.6396484c2.4248047,2.4272461,3.6396484,5.3564453,3.6396484,8.7875977
		C498.5324707,122.1494446,497.317627,125.0483704,494.8928223,127.4145813z"/>
	<path class="st0" d="M549.130127,111.0815735c13.9638672,0,20.7714844-8.815918,20.4160156-26.4526367v-2.3081055
		c-5.9189453,5.6811523-13.3759766,8.5219727-22.3691406,8.5219727c-11.3623047,0-20.4775391-2.9570312-27.3398438-8.8769531
		c-6.8652344-5.9165039-10.296875-13.9638672-10.296875-24.1445312c0-10.6518555,3.8447266-19.4091797,11.5390625-26.2749023
		c7.6923828-6.862793,17.2792969-10.296875,28.7607422-10.296875c12.8994141,0,23.4931641,4.2607422,31.7783203,12.7822266
		c8.2832031,8.5219727,12.4277344,21.7783203,12.4277344,39.7675781c0,17.753418-3.9667969,31.809082-11.8945312,42.1645508
		c-7.9306641,10.3579102-18.8798828,15.5336914-32.84375,15.5336914c-4.5,0-8.7607422-0.4433594-12.7822266-1.3310547
		c-4.0253906-0.8876953-7.2792969-1.980957-9.7646484-3.284668c-2.4853516-1.3007812-4.6767578-2.6323242-6.5693359-3.9941406
		c-1.8945312-1.359375-3.2558594-2.4550781-4.0830078-3.284668l-1.0654297-1.4204102l11.7177734-17.0429688
		c2.7207031,2.3691406,4.6435547,3.9946289,5.7695312,4.8823242c1.1240234,0.8876953,3.2841797,1.9526367,6.4804688,3.1953125
		C542.2062988,110.4599915,545.5793457,111.0815735,549.130127,111.0815735z M569.013916,57.2886047
		c-1.7753906-11.0068359-7.9892578-16.5102539-18.640625-16.5102539c-5.3261719,0-9.6484375,1.5976562-12.9599609,4.793457
		c-3.3154297,3.1953125-4.9716797,7.1621094-4.9716797,11.8945312c0,4.6157227,1.6259766,8.4633789,4.8828125,11.5395508
		c3.2539062,3.0791016,7.5449219,4.6162109,12.8710938,4.6162109s9.7333984-1.5371094,13.2255859-4.6162109
		C566.911377,65.929718,568.7756348,62.0239563,569.013916,57.2886047z"/>
	<path class="st0" d="M631.6828613,20.3618469c7.4560547,0,13.3730469,2.5463867,17.7529297,7.6337891
		c4.3769531,5.090332,6.5693359,11.3041992,6.5693359,18.6411133c0,7.3398438-2.1923828,13.581543-6.5693359,18.7299805
		c-4.3798828,5.1484375-10.296875,7.7226562-17.7529297,7.7226562c-7.3398438,0-13.2265625-2.6020508-17.6650391-7.8115234
		c-4.4384766-5.206543-6.6572266-11.4204102-6.6572266-18.6411133c0-7.3369141,2.21875-13.5507812,6.6572266-18.6411133
		C618.4562988,22.9082336,624.3430176,20.3618469,631.6828613,20.3618469z M693.8195801,22.6699524h17.9306641
		l-84.6835938,106.5200195H608.958252L693.8195801,22.6699524z M641.092041,46.6367493
		c0-9.2319336-3.1376953-13.8476562-9.4091797-13.8476562c-6.2753906,0-9.4091797,4.6157227-9.4091797,13.8476562
		s3.1337891,13.8476562,9.4091797,13.8476562C637.9543457,60.4844055,641.092041,55.8686829,641.092041,46.6367493z
		 M689.9133301,77.882843c7.4570312,0,13.4042969,2.5742188,17.8427734,7.7226562
		c4.4375,5.1484375,6.6572266,11.3925781,6.6572266,18.7299805c0,7.2202148-2.2197266,13.4038086-6.6572266,18.5522461
		c-4.4384766,5.1484375-10.3857422,7.722168-17.8427734,7.722168c-7.3398438,0-13.2255859-2.5737305-17.6640625-7.722168
		s-6.6582031-11.3320312-6.6582031-18.5522461c0-7.3374023,2.2197266-13.581543,6.6582031-18.7299805
		S682.5734863,77.882843,689.9133301,77.882843z M689.9133301,90.3100891c-6.2744141,0-9.4091797,4.6767578-9.4091797,14.0253906
		c0,9.1152344,3.1347656,13.6699219,9.4091797,13.6699219c6.2724609,0,9.4091797-4.5546875,9.4091797-13.6699219
		C699.3225098,94.9868469,696.185791,90.3100891,689.9133301,90.3100891z"/>
	<path class="st0" d="M839.9289551,92.2627258c0,11.4814453-3.7587891,20.8022461-11.2734375,27.9619141
		c-7.5175781,7.1621094-16.71875,10.7407227-27.6064453,10.7407227c-11.0068359,0-20.2695312-3.5786133-27.7841797-10.7407227
		c-7.5175781-7.159668-11.2734375-16.4804688-11.2734375-27.9619141c0-11.5976562,3.7558594-21.0654297,11.2734375-28.4052734
		c7.5146484-7.3369141,16.7773438-11.0068359,27.7841797-11.0068359c10.8876953,0,20.0888672,3.6699219,27.6064453,11.0068359
		C836.170166,71.1972961,839.9289551,80.6650696,839.9289551,92.2627258z M801.0490723,114.0996399
		c5.2070312,0,9.4980469-2.0112305,12.8710938-6.0361328c3.3730469-4.0224609,5.0595703-9.4091797,5.0595703-16.1557617
		c0-6.6269531-1.6865234-11.9833984-5.0595703-16.0668945c-3.3730469-4.0830078-7.6640625-6.1245117-12.8710938-6.1245117
		c-5.3261719,0-9.6757812,2.0415039-13.0488281,6.1245117c-3.3730469,4.0834961-5.0595703,9.4399414-5.0595703,16.0668945
		c0,6.746582,1.65625,12.1333008,4.9707031,16.1557617C791.223877,112.0884094,795.6037598,114.0996399,801.0490723,114.0996399z"/>
	<path class="st0" d="M901.532959,71.136261h-19.7060547v58.0537109h-21.3037109V71.136261H847.739502V54.6260071h12.7836914
		v-4.4384766c0-9.3481445,2.4550781-16.6274414,7.3671875-21.8369141c4.9101562-5.206543,11.9228516-7.8115234,21.0380859-7.8115234
		c3.1953125,0,6.2714844,0.296875,9.2314453,0.8876953c2.9570312,0.59375,5.0878906,1.1845703,6.3916016,1.7753906
		l2.1298828,0.8876953l-6.5683594,15.8007812c-2.1308594-1.0654297-4.8544922-1.5981445-8.1669922-1.5981445
		c-3.0791016,0-5.5341797,0.9765625-7.3671875,2.9296875c-1.8369141,1.9526367-2.7519531,4.5878906-2.7519531,7.8999023v5.5039062
		h19.7060547V71.136261z"/>
	<path class="st0" d="M1016.751709,70.6040344h-9.7636719v0.3549805c1.5361328,1.4199219,2.3076172,4.5576172,2.3076172,9.4091797
		c0,6.7460938-2.7236328,12.4272461-8.1669922,17.043457c-5.4453125,4.6157227-13.2568359,6.9238281-23.4335938,6.9238281
		c-4.7353516,0-9.1738281-0.6494141-13.3154297-1.953125c-2.3691406,1.3037109-3.5507812,3.0180664-3.5507812,5.1484375
		c0,1.1845703,0.3554688,2.1611328,1.0654297,2.9291992c0.7099609,0.7714844,2.4853516,1.4814453,5.3261719,2.1303711
		c2.8398438,0.6518555,6.9814453,1.0957031,12.4267578,1.331543c14.0839844,0.59375,23.90625,2.6049805,29.4707031,6.0361328
		c5.5615234,3.4345703,8.3447266,8.8769531,8.3447266,16.3334961c0,7.2177734-3.4345703,13.2841797-10.2978516,18.1972656
		c-6.8652344,4.9091797-16.5712891,7.3671875-29.1152344,7.3671875c-12.6660156,0-22.0136719-1.7753906-28.0498047-5.3261719
		s-9.0546875-8.4042969-9.0546875-14.5576172c0-6.984375,3.7861328-12.546875,11.3623047-16.6879883
		c-6.6298828-3.1958008-9.9423828-8.2832031-9.9423828-15.2680664c0-5.6806641,3.5507812-10.4741211,10.6523438-14.3798828
		c-4.6162109-4.3774414-6.9238281-9.8227539-6.9238281-16.3334961c0-7.6918945,2.8681641-13.9638672,8.6103516-18.8183594
		c5.7392578-4.8515625,13.4042969-7.2788086,22.9912109-7.2788086c4.2607422,0,8.1660156,0.4741211,11.7167969,1.4204102h27.3398438
		V70.6040344z M979.6472168,130.2554016c-3.3144531-0.1191406-6.984375-0.4160156-11.0068359-0.8876953
		c-4.8544922,2.4853516-7.2792969,5.9169922-7.2792969,10.296875c0,5.6806641,5.5625,8.5214844,16.6884766,8.5214844
		c6.1523438,0,10.7685547-0.8291016,13.8476562-2.4853516c3.0761719-1.6591797,4.6162109-3.8476562,4.6162109-6.5693359
		c0-2.6044922-1.2148438-4.6767578-3.6396484-6.2128906C990.4470215,131.3784485,986.0388184,130.4907532,979.6472168,130.2554016z
		 M977.6950684,67.0532532c-3.7900391,0-6.7773438,1.1538086-8.9658203,3.4619141
		c-2.1914062,2.3076172-3.2841797,5.1206055-3.2841797,8.4326172c0,3.434082,1.0927734,6.2749023,3.2841797,8.5219727
		c2.1884766,2.2495117,5.1757812,3.3730469,8.9658203,3.3730469c3.9052734,0,7.0117188-1.1235352,9.3203125-3.3730469
		c2.3076172-2.2470703,3.4619141-5.0878906,3.4619141-8.5219727c0-3.3120117-1.1542969-6.125-3.4619141-8.4326172
		C984.7067871,68.2070618,981.6003418,67.0532532,977.6950684,67.0532532z"/>
	<path class="st0" d="M1085.635498,108.2407532l7.4560547,14.0253906c-0.7099609,0.7099609-1.7470703,1.5703125-3.1064453,2.5742188
		c-1.3623047,1.0068359-4.4384766,2.3383789-9.2324219,3.9946289c-4.7929688,1.6557617-10.0302734,2.4858398-15.7109375,2.4858398
		c-12.3115234,0-22.0449219-3.6982422-29.2050781-11.0961914c-7.1621094-7.3955078-10.7402344-16.8354492-10.7402344-28.3168945
		c0-11.2426758,3.4316406-20.5634766,10.296875-27.9614258c6.8623047-7.3955078,15.7392578-11.0957031,26.6298828-11.0957031
		c10.7685547,0,19.2626953,3.3730469,25.4765625,10.1191406c6.2128906,6.746582,9.3203125,15.7421875,9.3203125,26.9853516
		l-0.1777344,5.8583984h-50.9521484c1.1816406,12.4272461,8.1054688,18.6411133,20.7714844,18.6411133
		c3.4316406,0,6.7460938-0.5019531,9.9414062-1.5087891c3.1962891-1.0043945,5.5039062-2.0419922,6.9238281-3.1069336
		L1085.635498,108.2407532z M1061.4909668,68.8286438c-8.4052734,0-13.4931641,4.793457-15.2685547,14.3798828h29.8261719
		C1075.0993652,73.6221008,1070.2478027,68.8286438,1061.4909668,68.8286438z"/>
	<path class="st0" d="M1153.4528809,54.6260071v17.9306641h-3.90625c-5.0898438,0-9.2041016,1.628418-12.3378906,4.8823242
		c-3.1376953,3.2563477-4.7050781,7.6645508-4.7050781,13.2260742v38.5249023h-21.3037109V54.6260071h13.3144531
		l3.0185547,11.0068359h1.0654297c3.9052734-7.3369141,10.8291016-11.0068359,20.7714844-11.0068359H1153.4528809z"/>
	<path class="st0" d="M1238.1364746,86.4043274v42.7856445h-21.3046875V86.7593079
		c0-4.496582-1.3310547-8.1943359-3.9941406-11.0957031c-2.6630859-2.8989258-6.3027344-4.3496094-10.9179688-4.3496094
		c-4.6162109,0-8.2275391,1.3618164-10.8300781,4.0830078c-2.6044922,2.7241211-4.0253906,6.0976562-4.2607422,10.1196289
		v43.6733398h-21.3037109V54.6260071h13.3144531l3.0185547,10.4741211h1.2421875
		c5.2070312-8.1665039,13.1962891-12.2495117,23.9677734-12.2495117c11.953125,0,20.6513672,4.3217773,26.0966797,12.9599609
		h1.0654297c5.3261719-8.7573242,13.4316406-13.1376953,24.3222656-13.1376953
		c9.4677734,0,16.9541016,3.0180664,22.4580078,9.0541992s8.2558594,14.0864258,8.2558594,24.1445312v43.3183594h-21.3046875
		V87.6470032c0-4.7324219-1.3037109-8.6381836-3.9052734-11.7172852c-2.6054688-3.0761719-6.2138672-4.6157227-10.8300781-4.6157227
		c-4.8544922,0-8.5820312,1.4814453-11.1845703,4.4384766C1239.4372559,78.7119446,1238.1364746,82.2627258,1238.1364746,86.4043274
		z"/>
	<path class="st0" d="M1303.291748,122.6211243l6.9238281-14.5576172
		c7.4560547,4.8544922,15.5039062,7.2788086,24.1445312,7.2788086c7.5732422,0,11.3623047-2.1303711,11.3623047-6.3911133
		c0-2.1303711-1.4208984-3.8754883-4.2607422-5.2373047c-2.8408203-1.359375-6.3027344-2.5742188-10.3857422-3.6396484
		c-4.0839844-1.0649414-8.1972656-2.3662109-12.3388672-3.9057617c-4.1445312-1.5366211-7.6337891-4.0527344-10.4746094-7.5449219
		c-2.8408203-3.4897461-4.2607422-7.8393555-4.2607422-13.0488281c0-6.6269531,2.5742188-12.0722656,7.7226562-16.3330078
		s12.5166016-6.3911133,22.1025391-6.3911133c6.2724609,0,12.1308594,0.5322266,17.5761719,1.5976562
		c5.4423828,1.0654297,9.2900391,2.1914062,11.5400391,3.3730469l3.3730469,1.5976562l-6.5683594,15.8007812
		c-6.6298828-4.3774414-14.4414062-6.5688477-23.4345703-6.5688477c-7.2207031,0-10.8300781,2.0722656-10.8300781,6.2138672
		c0,1.7753906,1.0351562,3.2563477,3.1074219,4.4379883c2.0693359,1.1845703,4.7041016,2.0722656,7.8994141,2.6630859
		c3.1962891,0.59375,6.5966797,1.4814453,10.2089844,2.6630859c3.6083984,1.1845703,7.0117188,2.5463867,10.2080078,4.0834961
		c3.1953125,1.5395508,5.828125,3.9360352,7.9003906,7.1899414c2.0693359,3.2568359,3.1064453,7.1899414,3.1064453,11.8061523
		c0,6.9848633-2.6347656,12.6049805-7.9003906,16.8657227c-5.2675781,4.2607422-13.4033203,6.3911133-24.4111328,6.3911133
		c-6.6289062,0-12.6347656-0.7099609-18.0195312-2.1303711c-5.3867188-1.4204102-9.0839844-2.8408203-11.0957031-4.2607422
		L1303.291748,122.6211243z"/>
	<path class="st0" d="M1385.6677246,50.542511l15.2675781-16.1557617l-21.4814453-3.550293l4.6152344-13.6704102
		l19.3515625,10.1196289l-3.0175781-21.8369141h14.2021484l-3.5507812,22.0141602l19.8837891-10.296875l4.4384766,13.6704102
		l-21.4814453,3.550293l15.4453125,16.1557617l-11.7167969,8.3442383l-10.1201172-19.5288086l-10.296875,19.5288086
		L1385.6677246,50.542511z"/>
</g>
</svg>
