<?xml version="1.0" encoding="utf-8"?>
<!-- Generator: Adobe Illustrator 26.1.0, SVG Export Plug-In . SVG Version: 6.00 Build 0)  -->
<svg version="1.1" id="Layer_1" xmlns="http://www.w3.org/2000/svg" xmlns:xlink="http://www.w3.org/1999/xlink" x="0px" y="0px"
	 viewBox="0 0 1354.8754883 305.2758789" style="enable-background:new 0 0 1354.8754883 305.2758789;" xml:space="preserve">
<style type="text/css">
	.st0{fill:#FFFFFF;}
</style>
<g>
	<path class="st0" d="M12.5371094,9.8554688h42.9130859c11.6220703,0,20.9541016,3.0751953,27.9941406,9.2197266
		c7.0410156,6.1474609,10.5605469,14.3061523,10.5605469,24.4736328c0,7.2661133-1.7597656,13.5229492-5.2802734,18.7749023
		c-3.5195312,5.2539062-8.4101562,9.1645508-14.6669922,11.7338867v1.3408203l23.2998047,33.0229492v2.0117188h-22.796875
		L51.9306641,77.2426758H32.8203125v33.1904297H12.5371094V9.8554688z M68.0224609,55.7021484
		c3.3525391-2.7368164,5.0292969-6.7314453,5.0292969-11.9853516c0-5.2514648-1.7050781-9.2460938-5.1132812-11.9858398
		c-3.4101562-2.7368164-7.9619141-4.1064453-13.6611328-4.1064453H32.8203125V59.809082h21.9599609
		C60.2539062,59.809082,64.6699219,58.4418945,68.0224609,55.7021484z"/>
	<path class="st0" d="M160.7216797,90.652832l7.0400391,13.2426758c-0.6699219,0.6704102-1.6494141,1.4824219-2.9335938,2.4306641
		c-1.2851562,0.9506836-4.1904297,2.2080078-8.7158203,3.7714844c-4.5263672,1.5639648-9.4716797,2.347168-14.8359375,2.347168
		c-11.6240234,0-20.8144531-3.4916992-27.5742188-10.4770508c-6.7636719-6.9829102-10.1416016-15.8959961-10.1416016-26.7368164
		c0-10.6157227,3.2392578-19.4160156,9.7216797-26.4013672c6.4804688-6.9829102,14.8613281-10.4770508,25.1445312-10.4770508
		c10.1679688,0,18.1884766,3.1850586,24.0546875,9.5546875c5.8671875,6.3701172,8.8007812,14.8642578,8.8007812,25.4799805
		l-0.1679688,5.5317383h-48.109375c1.1162109,11.7338867,7.6533203,17.6010742,19.6132812,17.6010742
		c3.2392578,0,6.3691406-0.4741211,9.3867188-1.4248047c3.0175781-0.9482422,5.1962891-1.9277344,6.5380859-2.9335938
		L160.7216797,90.652832z M137.9238281,53.4389648c-7.9355469,0-12.7392578,4.5263672-14.4160156,13.578125h28.1621094
		C150.7744141,57.965332,146.1933594,53.4389648,137.9238281,53.4389648z"/>
	<path class="st0" d="M203.5507812,25.7802734c-2.2919922,2.1240234-5.1123047,3.1850586-8.4648438,3.1850586
		s-6.1474609-1.0610352-8.3818359-3.1850586c-2.2363281-2.121582-3.3525391-4.8613281-3.3525391-8.2138672
		s1.1162109-6.1181641,3.3525391-8.2973633C188.9384766,7.0898438,191.7333984,6,195.0859375,6
		s6.1728516,1.0898438,8.4648438,3.269043c2.2890625,2.1791992,3.4365234,4.9448242,3.4365234,8.2973633
		S205.8398438,23.6586914,203.5507812,25.7802734z M184.8603516,110.4331055V40.0288086h20.1152344v70.4042969H184.8603516z"/>
	<path class="st0" d="M292.1435547,70.034668v40.3984375h-20.1162109V70.3696289
		c0-4.2456055-1.2568359-7.7368164-3.7714844-10.4765625c-2.5146484-2.7373047-5.9501953-4.1069336-10.3085938-4.1069336
		s-7.7685547,1.2856445-10.2255859,3.8554688c-2.4599609,2.5717773-3.8007812,5.7568359-4.0234375,9.5546875v41.2368164h-20.1152344
		V40.0288086h12.5722656l2.8496094,9.8901367h1.1728516c4.9169922-7.7109375,12.4599609-11.5664062,22.6308594-11.5664062
		c11.2861328,0,19.5,4.0805664,24.640625,12.2368164h1.0058594c5.0292969-8.2685547,12.6826172-12.4042969,22.9658203-12.4042969
		c8.9394531,0,16.0078125,2.8496094,21.2050781,8.5488281c5.1962891,5.699707,7.7949219,13.300293,7.7949219,22.7978516v40.9013672
		h-20.1162109V71.2080078c0-4.4682617-1.2304688-8.15625-3.6875-11.0634766
		c-2.4599609-2.9047852-5.8671875-4.3583984-10.2255859-4.3583984c-4.5839844,0-8.1035156,1.3984375-10.5605469,4.1904297
		C293.3720703,62.7714844,292.1435547,66.1240234,292.1435547,70.034668z"/>
	<path class="st0" d="M418.5351562,67.0170898v43.4160156h-13.7451172l-2.6826172-8.8842773h-0.8378906
		c-4.3583984,7.0405273-11.9013672,10.5610352-22.6298828,10.5610352c-7.9365234,0-14.2226562-2.0957031-18.8583984-6.2866211
		c-4.6386719-4.1904297-6.9570312-9.5258789-6.9570312-16.0083008c0-7.2631836,2.7089844-12.934082,8.1298828-17.0146484
		c5.4199219-4.078125,13.3818359-6.1181641,23.8876953-6.1181641c5.3642578,0,10.1679688,0.6152344,14.4160156,1.84375v-2.1791992
		c0-7.9335938-5.5898438-11.9018555-16.7626953-11.9018555c-3.0175781,0-6.0634766,0.4194336-9.1357422,1.2573242
		c-3.0751953,0.8383789-5.3935547,1.6499023-6.9570312,2.4306641l-2.3466797,1.3408203l-6.3701172-14.7509766
		c0.7802734-0.4453125,1.8994141-1.0322266,3.3525391-1.7602539c1.4511719-0.7255859,4.6650391-1.6762695,9.6386719-2.8496094
		c4.9716797-1.1733398,10.1416016-1.7602539,15.5058594-1.7602539c10.3935547,0,18.3818359,2.5981445,23.9707031,7.7949219
		C415.7402344,51.34375,418.5351562,58.300293,418.5351562,67.0170898z M383.8359375,98.3637695
		c4.2460938,0,7.8496094-1.199707,10.8125-3.6040039c2.9589844-2.4018555,4.4970703-5.4477539,4.609375-9.1357422v-5.6992188
		c-2.6816406-1.4511719-6.7050781-2.1791992-12.0693359-2.1791992c-5.0292969,0-8.8583984,0.9506836-11.4824219,2.8496094
		c-2.6269531,1.9013672-3.9394531,4.5258789-3.9394531,7.878418c0,2.9072266,1.0898438,5.2802734,3.2685547,7.1245117
		C377.2148438,97.4418945,380.1484375,98.3637695,383.8359375,98.3637695z"/>
	<path class="st0" d="M502.5175781,55.1152344h-9.2197266v0.3354492c1.4511719,1.3413086,2.1796875,4.3032227,2.1796875,8.8842773
		c0,6.3701172-2.5722656,11.734375-7.7109375,16.0922852c-5.1416016,4.3583984-12.5175781,6.5375977-22.1269531,6.5375977
		c-4.4716797,0-8.6621094-0.612793-12.5722656-1.84375c-2.2373047,1.230957-3.3525391,2.8496094-3.3525391,4.8613281
		c0,1.1181641,0.3349609,2.0405273,1.0058594,2.765625c0.6699219,0.7285156,2.3466797,1.3989258,5.0283203,2.0117188
		c2.6826172,0.6157227,6.5927734,1.034668,11.734375,1.2573242c13.2978516,0.5605469,22.5722656,2.4594727,27.8261719,5.6992188
		c5.2519531,3.2426758,7.8789062,8.3813477,7.8789062,15.421875c0,6.8154297-3.2431641,12.5439453-9.7226562,17.1816406
		c-6.4824219,4.6367188-15.6474609,6.9570312-27.4912109,6.9570312c-11.9589844,0-20.7861328-1.6757812-26.4853516-5.0292969
		c-5.6992188-3.3525391-8.5488281-7.9355469-8.5488281-13.7451172c0-6.5947266,3.5751953-11.8466797,10.7275391-15.7573242
		c-6.2597656-3.0170898-9.3867188-7.8208008-9.3867188-14.4160156c0-5.3642578,3.3525391-9.8901367,10.0576172-13.578125
		c-4.3583984-4.1328125-6.5371094-9.2744141-6.5371094-15.421875c0-7.2626953,2.7080078-13.1850586,8.1298828-17.7685547
		c5.4189453-4.5810547,12.6552734-6.8725586,21.7080078-6.8725586c4.0224609,0,7.7109375,0.4477539,11.0634766,1.3408203h25.8144531
		V55.1152344z M467.4833984,111.4389648c-3.1298828-0.1123047-6.5957031-0.3925781-10.3935547-0.8378906
		c-4.5830078,2.3466797-6.8720703,5.5869141-6.8720703,9.7216797c0,5.3642578,5.2509766,8.046875,15.7568359,8.046875
		c5.8095703,0,10.1679688-0.7832031,13.0751953-2.3466797c2.9042969-1.5664062,4.3583984-3.6328125,4.3583984-6.2021484
		c0-2.4599609-1.1474609-4.4160156-3.4365234-5.8671875C477.6796875,112.4995117,473.5175781,111.6616211,467.4833984,111.4389648z
		 M465.6396484,51.7626953c-3.578125,0-6.3994141,1.0898438-8.4658203,3.269043
		c-2.0693359,2.1791992-3.1005859,4.8349609-3.1005859,7.9624023c0,3.2426758,1.03125,5.9243164,3.1005859,8.0458984
		c2.0664062,2.1245117,4.8876953,3.1850586,8.4658203,3.1850586c3.6875,0,6.6210938-1.0605469,8.7998047-3.1850586
		c2.1796875-2.121582,3.2695312-4.8032227,3.2695312-8.0458984c0-3.1274414-1.0898438-5.7832031-3.2695312-7.9624023
		C472.2607422,52.8525391,469.3271484,51.7626953,465.6396484,51.7626953z"/>
	<path class="st0" d="M534.2832031,25.7802734c-2.2919922,2.1240234-5.1123047,3.1850586-8.4648438,3.1850586
		s-6.1474609-1.0610352-8.3818359-3.1850586c-2.2363281-2.121582-3.3525391-4.8613281-3.3525391-8.2138672
		s1.1162109-6.1181641,3.3525391-8.2973633C519.6708984,7.0898438,522.4658203,6,525.8183594,6
		s6.1728516,1.0898438,8.4648438,3.269043c2.2890625,2.1791992,3.4365234,4.9448242,3.4365234,8.2973633
		S536.5722656,23.6586914,534.2832031,25.7802734z M515.5927734,110.4331055V40.0288086h20.1152344v70.4042969H515.5927734z"/>
	<path class="st0" d="M574.4306641,70.2021484v40.230957h-20.1152344V40.0288086h12.5722656l2.8496094,9.8901367h1.1728516
		c2.7929688-4.0229492,5.9228516-6.9829102,9.3876953-8.8842773c3.4628906-1.8989258,7.9335938-2.8496094,13.4101562-2.8496094
		c9.0517578,0,16.2021484,2.8496094,21.4570312,8.5488281c5.2509766,5.699707,7.8779297,13.300293,7.8779297,22.7978516v40.9013672
		h-20.1152344V71.2080078c0-4.4682617-1.2861328-8.15625-3.8554688-11.0634766
		c-2.5722656-2.9047852-6.0341797-4.3583984-10.3925781-4.3583984s-7.8242188,1.4536133-10.3935547,4.3583984
		C575.7138672,63.0517578,574.4306641,66.4042969,574.4306641,70.2021484z"/>
	<path class="st0" d="M693.6157227,90.652832l7.0390625,13.2426758c-0.6699219,0.6704102-1.6484375,1.4824219-2.9335938,2.4306641
		c-1.2851562,0.9506836-4.1894531,2.2080078-8.7148438,3.7714844c-4.5273438,1.5639648-9.4726562,2.347168-14.8359375,2.347168
		c-11.625,0-20.8144531-3.4916992-27.574707-10.4770508c-6.7636719-6.9829102-10.1416016-15.8959961-10.1416016-26.7368164
		c0-10.6157227,3.2392578-19.4160156,9.7216797-26.4013672c6.480957-6.9829102,14.8618164-10.4770508,25.1450195-10.4770508
		c10.1679688,0,18.1875,3.1850586,24.0546875,9.5546875c5.8671875,6.3701172,8.8007812,14.8642578,8.8007812,25.4799805
		l-0.1679688,5.5317383h-48.109375c1.1152344,11.7338867,7.6523438,17.6010742,19.6132812,17.6010742
		c3.2382812,0,6.3691406-0.4741211,9.3867188-1.4248047c3.0175781-0.9482422,5.1953125-1.9277344,6.5371094-2.9335938
		L693.6157227,90.652832z M670.8168945,53.4389648c-7.9355469,0-12.7382812,4.5263672-14.4160156,13.578125h28.1621094
		C683.668457,57.965332,679.0864258,53.4389648,670.8168945,53.4389648z"/>
	<path class="st0" d="M745.4106445,40.0288086h12.2382812v-21.456543h20.1152344v21.456543h17.265625v15.5893555h-17.265625
		v31.5146484c0,5.1411133,2.5136719,7.7109375,7.5429688,7.7109375c1.2285156,0,2.4570312-0.1938477,3.6875-0.5869141
		c1.2285156-0.3901367,2.1796875-0.809082,2.8496094-1.2573242l1.0058594-0.5029297l5.6992188,13.9135742
		c-5.2539062,3.800293-11.2890625,5.699707-18.1035156,5.699707c-7.8242188,0-13.578125-2.1796875-17.265625-6.5380859
		s-5.53125-10.2802734-5.53125-17.7685547V55.6181641h-12.2382812V40.0288086z"/>
	<path class="st0" d="M809.6137695,110.4331055V9.0175781h20.2832031v37.5488281h0.6699219
		c4.1328125-5.5869141,10.7285156-8.3813477,19.7792969-8.3813477c8.4921875,0,15.28125,2.8232422,20.3671875,8.465332
		c5.0839844,5.644043,7.6269531,13.2714844,7.6269531,22.8813477v40.7338867h-20.1152344V71.3754883
		c0-4.4682617-1.2851562-8.1850586-3.8554688-11.1474609c-2.5722656-2.9594727-5.9785156-4.4418945-10.2246094-4.4418945
		c-4.1367188,0-7.4882812,1.3408203-10.0585938,4.0229492c-2.5722656,2.6821289-3.9667969,5.8120117-4.1894531,9.387207v41.2368164
		H809.6137695z"/>
	<path class="st0" d="M948.7446289,90.652832l7.0410156,13.2426758c-0.6699219,0.6704102-1.6503906,1.4824219-2.9335938,2.4306641
		c-1.2851562,0.9506836-4.1914062,2.2080078-8.7167969,3.7714844c-4.5253906,1.5639648-9.4707031,2.347168-14.8359375,2.347168
		c-11.6230469,0-20.8144531-3.4916992-27.5742188-10.4770508c-6.7636719-6.9829102-10.140625-15.8959961-10.140625-26.7368164
		c0-10.6157227,3.2382812-19.4160156,9.7207031-26.4013672c6.4804688-6.9829102,14.8613281-10.4770508,25.1445312-10.4770508
		c10.1679688,0,18.1894531,3.1850586,24.0546875,9.5546875c5.8671875,6.3701172,8.8007812,14.8642578,8.8007812,25.4799805
		l-0.1679688,5.5317383h-48.109375c1.1171875,11.7338867,7.6542969,17.6010742,19.6132812,17.6010742
		c3.2402344,0,6.3691406-0.4741211,9.3867188-1.4248047c3.0175781-0.9482422,5.1972656-1.9277344,6.5390625-2.9335938
		L948.7446289,90.652832z M925.9477539,53.4389648c-7.9355469,0-12.7402344,4.5263672-14.4160156,13.578125h28.1621094
		C938.7973633,57.965332,934.2172852,53.4389648,925.9477539,53.4389648z"/>
	<path class="st0" d="M1003.2250977,104.230957l6.5371094-13.7456055c7.0390625,4.5834961,14.6386719,6.8725586,22.796875,6.8725586
		c7.1503906,0,10.7285156-2.0112305,10.7285156-6.034668c0-2.0112305-1.3417969-3.6586914-4.0234375-4.9448242
		c-2.6816406-1.2836914-5.9511719-2.4306641-9.8066406-3.4365234s-7.7382812-2.234375-11.6503906-3.6879883
		c-3.9121094-1.4506836-7.2070312-3.8266602-9.8886719-7.1240234c-2.6835938-3.2949219-4.0234375-7.4018555-4.0234375-12.3208008
		c0-6.2573242,2.4296875-11.3989258,7.2910156-15.421875s11.8183594-6.034668,20.8710938-6.034668
		c5.921875,0,11.453125,0.5029297,16.59375,1.5087891s8.7734375,2.0688477,10.8964844,3.1850586l3.1855469,1.5083008
		l-6.203125,14.9189453c-6.2597656-4.1328125-13.6347656-6.2021484-22.1269531-6.2021484
		c-6.8183594,0-10.2246094,1.956543-10.2246094,5.8671875c0,1.6762695,0.9765625,3.074707,2.9335938,4.1904297
		c1.953125,1.1186523,4.4414062,1.956543,7.4589844,2.5146484c3.0175781,0.5605469,6.2285156,1.3984375,9.6386719,2.5146484
		c3.4082031,1.1181641,6.6210938,2.4042969,9.6386719,3.8554688c3.0175781,1.4536133,5.5039062,3.7163086,7.4589844,6.7885742
		c1.9550781,3.0751953,2.9335938,6.7890625,2.9335938,11.1474609c0,6.5952148-2.4882812,11.9018555-7.4589844,15.9248047
		c-4.9746094,4.0229492-12.65625,6.0351562-23.0488281,6.0351562c-6.2597656,0-11.9316406-0.6708984-17.0136719-2.012207
		c-5.0878906-1.3408203-8.578125-2.6816406-10.4785156-4.0229492L1003.2250977,104.230957z"/>
	<path class="st0" d="M1147.0493164,70.034668v40.3984375h-20.1152344V70.3696289
		c0-4.2456055-1.2578125-7.7368164-3.7714844-10.4765625c-2.515625-2.7373047-5.9511719-4.1069336-10.3085938-4.1069336
		c-4.359375,0-7.7695312,1.2856445-10.2265625,3.8554688c-2.4589844,2.5717773-3.8007812,5.7568359-4.0234375,9.5546875v41.2368164
		h-20.1152344V40.0288086h12.5722656l2.8496094,9.8901367h1.1738281
		c4.9160156-7.7109375,12.4589844-11.5664062,22.6308594-11.5664062c11.2851562,0,19.5,4.0805664,24.640625,12.2368164h1.0058594
		c5.0292969-8.2685547,12.6816406-12.4042969,22.9648438-12.4042969c8.9394531,0,16.0078125,2.8496094,21.2050781,8.5488281
		c5.1972656,5.699707,7.7949219,13.300293,7.7949219,22.7978516v40.9013672h-20.1152344V71.2080078
		c0-4.4682617-1.2304688-8.15625-3.6875-11.0634766c-2.4609375-2.9047852-5.8671875-4.3583984-10.2265625-4.3583984
		c-4.5839844,0-8.1035156,1.3984375-10.5605469,4.1904297C1148.277832,62.7714844,1147.0493164,66.1240234,1147.0493164,70.034668z"
		/>
	<path class="st0" d="M1265.730957,90.652832l7.0410156,13.2426758c-0.6699219,0.6704102-1.6503906,1.4824219-2.9335938,2.4306641
		c-1.2851562,0.9506836-4.1914062,2.2080078-8.7167969,3.7714844c-4.5253906,1.5639648-9.4707031,2.347168-14.8359375,2.347168
		c-11.6230469,0-20.8144531-3.4916992-27.5742188-10.4770508c-6.7636719-6.9829102-10.140625-15.8959961-10.140625-26.7368164
		c0-10.6157227,3.2382812-19.4160156,9.7207031-26.4013672c6.4804688-6.9829102,14.8613281-10.4770508,25.1445312-10.4770508
		c10.1679688,0,18.1894531,3.1850586,24.0546875,9.5546875c5.8671875,6.3701172,8.8007812,14.8642578,8.8007812,25.4799805
		l-0.1679688,5.5317383h-48.109375c1.1171875,11.7338867,7.6542969,17.6010742,19.6132812,17.6010742
		c3.2402344,0,6.3691406-0.4741211,9.3867188-1.4248047c3.0175781-0.9482422,5.1972656-1.9277344,6.5390625-2.9335938
		L1265.730957,90.652832z M1242.934082,53.4389648c-7.9355469,0-12.7402344,4.5263672-14.4160156,13.578125h28.1621094
		C1255.7836914,57.965332,1251.2036133,53.4389648,1242.934082,53.4389648z"/>
	<path class="st0" d="M1290.0375977,110.4331055V9.0175781h20.1152344v101.4155273H1290.0375977z"/>
	<path class="st0" d="M1328.7602539,110.4331055V9.0175781h20.1152344v101.4155273H1328.7602539z"/>
</g>
</svg>
