<?xml version="1.0" encoding="utf-8"?>
<!-- Generator: Adobe Illustrator 26.1.0, SVG Export Plug-In . SVG Version: 6.00 Build 0)  -->
<svg version="1.1" id="Layer_1" xmlns="http://www.w3.org/2000/svg" xmlns:xlink="http://www.w3.org/1999/xlink" x="0px" y="0px"
	 viewBox="0 0 1354.8754883 305.2758789" style="enable-background:new 0 0 1354.8754883 305.2758789;" xml:space="preserve">
<style type="text/css">
	.st0{fill:#FFFFFF;}
</style>
<g>
	<path class="st0" d="M79.5888672,233.5649414c0,10.8408203-3.5488281,19.6416016-10.6445312,26.4023438
		c-7.0976562,6.7626953-15.7851562,10.1416016-26.0664062,10.1416016c-10.3925781,0-19.1376953-3.3789062-26.2333984-10.1416016
		C9.5458984,253.206543,6,244.4057617,6,233.5649414c0-10.9501953,3.5458984-19.8896484,10.6445312-26.8203125
		c7.0957031-6.9277344,15.8408203-10.3925781,26.2333984-10.3925781c10.28125,0,18.96875,3.4648438,26.0664062,10.3925781
		C76.0400391,213.675293,79.5888672,222.6147461,79.5888672,233.5649414z M42.8779297,254.184082
		c4.9169922,0,8.96875-1.8994141,12.1533203-5.7001953c3.1855469-3.7978516,4.7773438-8.8837891,4.7773438-15.2539062
		c0-6.2568359-1.5917969-11.3154297-4.7773438-15.1708984c-3.1845703-3.8554688-7.2363281-5.7832031-12.1533203-5.7832031
		c-5.0283203,0-9.1357422,1.9277344-12.3203125,5.7832031s-4.7773438,8.9140625-4.7773438,15.1708984
		c0,6.3701172,1.5634766,11.4560547,4.6933594,15.2539062C33.6015625,252.284668,37.7373047,254.184082,42.8779297,254.184082z"/>
	<path class="st0" d="M137.7568359,213.6176758h-18.6064453v54.8144531H99.0341797v-54.8144531H86.9648438V198.027832h12.0693359
		v-4.1904297c0-8.8271484,2.3183594-15.7001953,6.9570312-20.6191406c4.6357422-4.9160156,11.2568359-7.375,19.8642578-7.375
		c3.0166016,0,5.921875,0.2802734,8.7167969,0.8378906c2.7919922,0.5605469,4.8037109,1.1181641,6.0341797,1.6767578
		l2.0117188,0.8378906l-6.2021484,14.9189453c-2.0117188-1.0058594-4.5839844-1.5087891-7.7109375-1.5087891
		c-2.9072266,0-5.2255859,0.921875-6.9570312,2.765625c-1.7333984,1.84375-2.5976562,4.3320312-2.5976562,7.4599609v5.1962891
		h18.6064453V213.6176758z"/>
	<path class="st0" d="M175.9755859,257.7036133l11.0634766-15.421875c1.0058594,0.6708984,2.3466797,1.5664062,4.0224609,2.6826172
		c1.6767578,1.1181641,5,2.5712891,9.9746094,4.3583984c4.9707031,1.7880859,9.6933594,2.6816406,14.1640625,2.6816406
		c10.2802734,0,15.421875-3.7431641,15.421875-11.2314453c0-3.3525391-1.3701172-6.0605469-4.1064453-8.1298828
		c-2.7402344-2.0664062-8.0751953-4.2744141-16.0087891-6.6210938
		c-11.3984375-3.3525391-19.7802734-7.3466797-25.1445312-11.9853516c-5.3642578-4.6357422-8.0458984-10.8125-8.0458984-18.5234375
		c0-9.0517578,3.2402344-16.2861328,9.7226562-21.7080078c6.4794922-5.4189453,15.8115234-8.1298828,27.9941406-8.1298828
		c7.7109375,0,14.609375,0.8671875,20.7021484,2.5986328c6.0888672,1.7333984,10.1962891,3.4941406,12.3203125,5.2802734
		l3.3525391,2.5146484l-10.8955078,16.5947266c-0.7832031-0.6699219-1.8730469-1.4511719-3.2695312-2.3466797
		c-1.3984375-0.8935547-4.3027344-2.1210938-8.7158203-3.6875c-4.4160156-1.5644531-8.9140625-2.3466797-13.4941406-2.3466797
		c-9.9482422,0-14.9189453,3.3525391-14.9189453,10.0576172c0,2.9072266,1.3671875,5.2539062,4.1064453,7.0400391
		c2.7373047,1.7890625,7.7949219,3.8007812,15.1708984,6.0351562c11.9560547,3.3525391,20.7021484,7.4589844,26.2333984,12.3203125
		c5.5322266,4.8613281,8.2978516,11.2597656,8.2978516,19.1933594c0,9.2773438-3.2431641,16.8759766-9.7226562,22.7978516
		c-6.4824219,5.9248047-15.9248047,8.8837891-28.3291016,8.8837891c-7.9365234,0-15.2285156-1.0888672-21.8759766-3.2685547
		c-6.6503906-2.1787109-11.3144531-4.3291016-13.9970703-6.453125L175.9755859,257.7036133z"/>
	<path class="st0" d="M288.6210938,261.0561523h-0.8378906v33.5263672h-20.1152344V198.027832h12.9072266l3.0175781,9.890625
		h1.0058594c0.109375-0.3359375,0.3613281-0.7548828,0.7539062-1.2578125
		c0.390625-0.5029297,1.2285156-1.4248047,2.5146484-2.765625c1.2832031-1.3408203,2.7373047-2.5146484,4.3583984-3.5205078
		c1.6181641-1.0058594,3.8261719-1.9277344,6.6210938-2.765625c2.7919922-0.8378906,5.8095703-1.2568359,9.0517578-1.2568359
		c9.4980469,0,17.3212891,3.3525391,23.46875,10.0576172c6.1445312,6.7050781,9.2197266,15.5888672,9.2197266,26.6523438
		c0,10.8408203-3.046875,19.7255859-9.1357422,26.6533203c-6.0927734,6.9306641-13.7197266,10.3935547-22.8818359,10.3935547
		c-2.9072266,0-5.5888672-0.3095703-8.0458984-0.9228516c-2.4599609-0.6152344-4.3876953-1.3671875-5.7832031-2.2626953
		c-1.3994141-0.8925781-2.5986328-1.7861328-3.6044922-2.6816406c-1.0058594-0.8935547-1.6757812-1.6191406-2.0117188-2.1796875
		L288.6210938,261.0561523z M286.7773438,233.3979492c0,6.1464844,1.5634766,11.0371094,4.6943359,14.6669922
		c3.1269531,3.6328125,7.1503906,5.4482422,12.0683594,5.4482422c4.9169922,0,8.9394531-1.8701172,12.0693359-5.6152344
		c3.1279297-3.7431641,4.6943359-8.5751953,4.6943359-14.5c0-5.921875-1.5664062-10.8125-4.6943359-14.6679688
		c-3.1298828-3.8554688-7.1523438-5.7832031-12.0693359-5.7832031c-4.9179688,0-8.9414062,1.84375-12.0683594,5.5322266
		C288.3408203,222.1665039,286.7773438,227.1401367,286.7773438,233.3979492z"/>
	<path class="st0" d="M394.7304688,198.027832v16.9306641h-3.6875c-4.8066406,0-8.6904297,1.5371094-11.6503906,4.609375
		c-2.9619141,3.0751953-4.4423828,7.2373047-4.4423828,12.4882812v36.3759766h-20.1152344V198.027832h12.5722656
		l2.8496094,10.3925781h1.0058594c3.6875-6.9277344,10.2255859-10.3925781,19.6123047-10.3925781H394.7304688z"/>
	<path class="st0" d="M424.8203125,183.7797852c-2.2919922,2.1240234-5.1123047,3.1845703-8.4648438,3.1845703
		s-6.1474609-1.0605469-8.3818359-3.1845703c-2.2363281-2.1220703-3.3525391-4.8613281-3.3525391-8.2138672
		s1.1162109-6.1191406,3.3525391-8.2978516c2.234375-2.1796875,5.0292969-3.2685547,8.3818359-3.2685547
		s6.1728516,1.0888672,8.4648438,3.2685547c2.2890625,2.1787109,3.4365234,4.9453125,3.4365234,8.2978516
		S427.109375,181.6577148,424.8203125,183.7797852z M406.1298828,268.4321289V198.027832h20.1152344v70.4042969H406.1298828z"/>
	<path class="st0" d="M464.9677734,228.2006836v40.2314453h-20.1152344V198.027832h12.5722656l2.8496094,9.890625h1.1728516
		c2.7929688-4.0234375,5.9228516-6.9833984,9.3876953-8.8847656c3.4628906-1.8994141,7.9335938-2.8496094,13.4101562-2.8496094
		c9.0517578,0,16.2021484,2.8496094,21.4570312,8.5488281c5.2509766,5.6992188,7.8779297,13.3007812,7.8779297,22.7978516
		v40.9013672h-20.1152344V229.206543c0-4.4677734-1.2861328-8.15625-3.8554688-11.0634766
		c-2.5722656-2.9042969-6.0341797-4.3583984-10.3925781-4.3583984s-7.8242188,1.4541016-10.3935547,4.3583984
		C466.2509766,221.050293,464.9677734,224.402832,464.9677734,228.2006836z"/>
	<path class="st0" d="M597.5625,213.1147461h-9.2197266v0.3349609c1.4511719,1.3408203,2.1796875,4.3037109,2.1796875,8.8847656
		c0,6.3691406-2.5722656,11.7333984-7.7109375,16.0917969c-5.1416016,4.3583984-12.5175781,6.5380859-22.1269531,6.5380859
		c-4.4716797,0-8.6621094-0.6132812-12.5722656-1.84375c-2.2373047,1.2304688-3.3525391,2.8496094-3.3525391,4.8603516
		c0,1.1191406,0.3349609,2.0410156,1.0058594,2.7666016c0.6699219,0.7275391,2.3466797,1.3984375,5.0283203,2.0117188
		c2.6826172,0.6152344,6.5927734,1.0341797,11.734375,1.2568359c13.2978516,0.5605469,22.5722656,2.4589844,27.8261719,5.6992188
		c5.2519531,3.2421875,7.8789062,8.3818359,7.8789062,15.421875c0,6.8154297-3.2431641,12.5439453-9.7226562,17.1816406
		c-6.4824219,4.6367188-15.6474609,6.9570312-27.4912109,6.9570312c-11.9589844,0-20.7861328-1.6757812-26.4853516-5.0292969
		c-5.6992188-3.3525391-8.5488281-7.9355469-8.5488281-13.7451172c0-6.5947266,3.5751953-11.8466797,10.7275391-15.7568359
		c-6.2597656-3.0175781-9.3867188-7.8212891-9.3867188-14.4160156c0-5.3642578,3.3525391-9.890625,10.0576172-13.578125
		c-4.3583984-4.1337891-6.5371094-9.2744141-6.5371094-15.421875c0-7.2636719,2.7080078-13.1855469,8.1298828-17.7685547
		c5.4189453-4.5810547,12.6552734-6.8730469,21.7080078-6.8730469c4.0224609,0,7.7109375,0.4472656,11.0634766,1.3408203H597.5625
		V213.1147461z M562.5283203,269.4379883c-3.1298828-0.1123047-6.5957031-0.3925781-10.3935547-0.8378906
		c-4.5830078,2.3466797-6.8720703,5.5869141-6.8720703,9.7216797c0,5.3642578,5.2509766,8.046875,15.7568359,8.046875
		c5.8095703,0,10.1679688-0.7832031,13.0751953-2.3466797c2.9042969-1.5664062,4.3583984-3.6328125,4.3583984-6.2021484
		c0-2.4599609-1.1474609-4.4160156-3.4365234-5.8671875C572.7246094,270.4985352,568.5625,269.6606445,562.5283203,269.4379883z
		 M560.6845703,209.762207c-3.578125,0-6.3994141,1.0888672-8.4658203,3.2685547
		c-2.0693359,2.1787109-3.1005859,4.8349609-3.1005859,7.9619141c0,3.2431641,1.03125,5.9248047,3.1005859,8.046875
		c2.0664062,2.1240234,4.8876953,3.1845703,8.4658203,3.1845703c3.6875,0,6.6210938-1.0605469,8.7998047-3.1845703
		c2.1796875-2.1220703,3.2695312-4.8037109,3.2695312-8.046875c0-3.1269531-1.0898438-5.7832031-3.2695312-7.9619141
		C567.3056641,210.8510742,564.3720703,209.762207,560.6845703,209.762207z"/>
	<path class="st0" d="M715.0688477,242.6176758l11.734375,15.5888672c-0.3359375,0.3359375-0.7832031,0.7832031-1.3417969,1.3408203
		c-0.5605469,0.5605469-1.8710938,1.5664062-3.9394531,3.0175781c-2.0683594,1.4541016-4.3027344,2.7402344-6.7050781,3.8554688
		c-2.4042969,1.1181641-5.5878906,2.1220703-9.5546875,3.0175781c-3.9667969,0.8925781-8.1289062,1.3408203-12.4882812,1.3408203
		c-15.421875,0-27.8261719-5.0283203-37.2128906-15.0869141c-9.387207-10.0576172-14.0805664-22.5722656-14.0805664-37.5488281
		c0-14.8613281,4.6933594-27.3232422,14.0805664-37.3808594c9.3867188-10.0576172,21.7910156-15.0869141,37.2128906-15.0869141
		c6.9277344,0,13.2148438,1.0351562,18.859375,3.1015625c5.640625,2.0693359,9.5800781,4.1064453,11.8164062,6.1181641
		l3.3535156,3.1845703l-11.734375,15.5898438c-0.5605469-0.6708984-1.3984375-1.4794922-2.5136719-2.4306641
		c-1.1191406-0.9482422-3.6035156-2.2050781-7.4589844-3.7714844c-3.8554688-1.5634766-7.9082031-2.3466797-12.1542969-2.3466797
		c-8.9414062,0-16.2597656,3.1005859-21.9589844,9.3037109c-5.6992188,6.2021484-8.5488281,14.109375-8.5488281,23.71875
		c0,9.6123047,2.8496094,17.5458984,8.5488281,23.8037109c5.6992188,6.2597656,13.0175781,9.3867188,21.9589844,9.3867188
		c4.2460938,0,8.2148438-0.7246094,11.9023438-2.1787109c3.6875-1.4511719,6.3125-2.9042969,7.8789062-4.3583984
		L715.0688477,242.6176758z"/>
	<path class="st0" d="M738.5375977,268.4321289V167.0161133h20.1152344v101.4160156H738.5375977z"/>
	<path class="st0" d="M830.0629883,248.6518555l7.0390625,13.2431641c-0.6699219,0.6699219-1.6484375,1.4824219-2.9335938,2.4306641
		c-1.2851562,0.9501953-4.1894531,2.2080078-8.7148438,3.7714844c-4.5273438,1.5634766-9.4726562,2.3466797-14.8359375,2.3466797
		c-11.625,0-20.8144531-3.4912109-27.5742188-10.4765625c-6.7636719-6.9833984-10.1425781-15.8964844-10.1425781-26.7373047
		c0-10.6152344,3.2402344-19.4160156,9.7226562-26.4013672c6.4804688-6.9833984,14.8613281-10.4765625,25.1445312-10.4765625
		c10.1679688,0,18.1875,3.1845703,24.0546875,9.5546875c5.8671875,6.3691406,8.8007812,14.8632812,8.8007812,25.4794922
		l-0.1679688,5.53125h-48.109375c1.1152344,11.734375,7.6523438,17.6015625,19.6132812,17.6015625
		c3.2382812,0,6.3691406-0.4746094,9.3867188-1.4248047c3.0175781-0.9482422,5.1953125-1.9277344,6.5371094-2.9335938
		L830.0629883,248.6518555z M807.2641602,211.4379883c-7.9355469,0-12.7382812,4.5263672-14.4160156,13.578125h28.1621094
		C820.1157227,215.9643555,815.5336914,211.4379883,807.2641602,211.4379883z"/>
	<path class="st0" d="M914.8833008,225.0161133v43.4160156h-13.7441406l-2.6835938-8.8847656h-0.8378906
		c-4.3574219,7.0410156-11.9003906,10.5615234-22.6289062,10.5615234c-7.9375,0-14.2226562-2.0957031-18.859375-6.2861328
		c-4.6386719-4.1914062-6.9570312-9.5263672-6.9570312-16.0087891c0-7.2636719,2.7089844-12.9335938,8.1308594-17.0146484
		c5.4199219-4.078125,13.3808594-6.1181641,23.8867188-6.1181641c5.3652344,0,10.1679688,0.6152344,14.4160156,1.84375v-2.1796875
		c0-7.9335938-5.5898438-11.9013672-16.7617188-11.9013672c-3.0175781,0-6.0644531,0.4189453-9.1367188,1.2578125
		c-3.0742188,0.8378906-5.3925781,1.6494141-6.9570312,2.4296875l-2.3457031,1.3417969l-6.3710938-14.7519531
		c0.78125-0.4453125,1.9003906-1.03125,3.3535156-1.7597656c1.4511719-0.7255859,4.6640625-1.6767578,9.6386719-2.8496094
		c4.9707031-1.1738281,10.140625-1.7597656,15.5058594-1.7597656c10.3925781,0,18.3808594,2.5976562,23.9707031,7.7939453
		C912.0883789,209.3432617,914.8833008,216.2993164,914.8833008,225.0161133z M880.184082,256.362793
		c4.2460938,0,7.8496094-1.1992188,10.8125-3.6035156c2.9589844-2.4023438,4.4980469-5.4482422,4.609375-9.1367188v-5.6992188
		c-2.6816406-1.4511719-6.7050781-2.1787109-12.0683594-2.1787109c-5.0292969,0-8.859375,0.9501953-11.4824219,2.8496094
		c-2.6269531,1.9013672-3.9394531,4.5263672-3.9394531,7.8789062c0,2.9072266,1.0898438,5.2802734,3.2675781,7.1240234
		C873.5629883,255.440918,876.496582,256.362793,880.184082,256.362793z"/>
	<path class="st0" d="M952.6000977,228.2006836v40.2314453h-20.1152344V198.027832h12.5722656l2.8496094,9.890625h1.171875
		c2.7929688-4.0234375,5.9238281-6.9833984,9.3886719-8.8847656c3.4628906-1.8994141,7.9335938-2.8496094,13.4101562-2.8496094
		c9.0507812,0,16.2011719,2.8496094,21.4570312,8.5488281c5.25,5.6992188,7.8769531,13.3007812,7.8769531,22.7978516v40.9013672
		h-20.1152344V229.206543c0-4.4677734-1.2851562-8.15625-3.8554688-11.0634766
		c-2.5722656-2.9042969-6.0332031-4.3583984-10.3925781-4.3583984c-4.3574219,0-7.8242188,1.4541016-10.3925781,4.3583984
		C953.8833008,221.050293,952.6000977,224.402832,952.6000977,228.2006836z"/>
	<path class="st0" d="M1037.5043945,183.7797852c-2.2929688,2.1240234-5.1132812,3.1845703-8.4648438,3.1845703
		c-3.3535156,0-6.1484375-1.0605469-8.3828125-3.1845703c-2.2363281-2.1220703-3.3515625-4.8613281-3.3515625-8.2138672
		s1.1152344-6.1191406,3.3515625-8.2978516c2.234375-2.1796875,5.0292969-3.2685547,8.3828125-3.2685547
		c3.3515625,0,6.171875,1.0888672,8.4648438,3.2685547c2.2890625,2.1787109,3.4355469,4.9453125,3.4355469,8.2978516
		S1039.793457,181.6577148,1037.5043945,183.7797852z M1018.8129883,268.4321289V198.027832h20.1152344v70.4042969H1018.8129883z"/>
	<path class="st0" d="M1077.6508789,228.2006836v40.2314453h-20.1152344V198.027832h12.5722656l2.8496094,9.890625h1.1738281
		c2.7929688-4.0234375,5.921875-6.9833984,9.3867188-8.8847656c3.4628906-1.8994141,7.9335938-2.8496094,13.4101562-2.8496094
		c9.0527344,0,16.203125,2.8496094,21.4570312,8.5488281c5.2519531,5.6992188,7.8789062,13.3007812,7.8789062,22.7978516v40.9013672
		h-20.1152344V229.206543c0-4.4677734-1.2871094-8.15625-3.8554688-11.0634766
		c-2.5722656-2.9042969-6.0351562-4.3583984-10.3925781-4.3583984c-4.359375,0-7.8242188,1.4541016-10.3945312,4.3583984
		C1078.934082,221.050293,1077.6508789,224.402832,1077.6508789,228.2006836z"/>
	<path class="st0" d="M1210.246582,213.1147461h-9.2207031v0.3349609c1.4511719,1.3408203,2.1796875,4.3037109,2.1796875,8.8847656
		c0,6.3691406-2.5722656,11.7333984-7.7109375,16.0917969c-5.140625,4.3583984-12.5175781,6.5380859-22.1269531,6.5380859
		c-4.4707031,0-8.6621094-0.6132812-12.5722656-1.84375c-2.2363281,1.2304688-3.3515625,2.8496094-3.3515625,4.8603516
		c0,1.1191406,0.3339844,2.0410156,1.0058594,2.7666016c0.6699219,0.7275391,2.3457031,1.3984375,5.0273438,2.0117188
		c2.6835938,0.6152344,6.59375,1.0341797,11.734375,1.2568359c13.2988281,0.5605469,22.5722656,2.4589844,27.8261719,5.6992188
		c5.2519531,3.2421875,7.8789062,8.3818359,7.8789062,15.421875c0,6.8154297-3.2421875,12.5439453-9.7226562,17.1816406
		c-6.4824219,4.6367188-15.6464844,6.9570312-27.4902344,6.9570312c-11.9589844,0-20.7871094-1.6757812-26.4863281-5.0292969
		c-5.6992188-3.3525391-8.5488281-7.9355469-8.5488281-13.7451172c0-6.5947266,3.5761719-11.8466797,10.7285156-15.7568359
		c-6.2597656-3.0175781-9.3867188-7.8212891-9.3867188-14.4160156c0-5.3642578,3.3515625-9.890625,10.0566406-13.578125
		c-4.3574219-4.1337891-6.5371094-9.2744141-6.5371094-15.421875c0-7.2636719,2.7089844-13.1855469,8.1308594-17.7685547
		c5.4179688-4.5810547,12.6542969-6.8730469,21.7070312-6.8730469c4.0234375,0,7.7109375,0.4472656,11.0644531,1.3408203h25.8144531
		V213.1147461z M1175.2114258,269.4379883c-3.1289062-0.1123047-6.5957031-0.3925781-10.3925781-0.8378906
		c-4.5839844,2.3466797-6.8730469,5.5869141-6.8730469,9.7216797c0,5.3642578,5.2519531,8.046875,15.7578125,8.046875
		c5.8085938,0,10.1679688-0.7832031,13.0742188-2.3466797c2.9042969-1.5664062,4.359375-3.6328125,4.359375-6.2021484
		c0-2.4599609-1.1484375-4.4160156-3.4375-5.8671875C1185.4086914,270.4985352,1181.246582,269.6606445,1175.2114258,269.4379883z
		 M1173.3676758,209.762207c-3.578125,0-6.3984375,1.0888672-8.4648438,3.2685547
		c-2.0703125,2.1787109-3.1015625,4.8349609-3.1015625,7.9619141c0,3.2431641,1.03125,5.9248047,3.1015625,8.046875
		c2.0664062,2.1240234,4.8867188,3.1845703,8.4648438,3.1845703c3.6875,0,6.6210938-1.0605469,8.8007812-3.1845703
		c2.1796875-2.1220703,3.2695312-4.8037109,3.2695312-8.046875c0-3.1269531-1.0898438-5.7832031-3.2695312-7.9619141
		C1179.9887695,210.8510742,1177.0551758,209.762207,1173.3676758,209.762207z"/>
	<path class="st0" d="M1240.6704102,266.7553711c-2.2910156,2.234375-5.0566406,3.3535156-8.296875,3.3535156
		c-3.2421875,0-6.0097656-1.1191406-8.2988281-3.3535156c-2.2910156-2.2333984-3.4355469-4.9707031-3.4355469-8.2128906
		c0-3.2402344,1.1445312-6.0058594,3.4355469-8.2978516c2.2890625-2.2890625,5.0566406-3.4365234,8.2988281-3.4365234
		c3.2402344,0,6.0058594,1.1474609,8.296875,3.4365234c2.2890625,2.2919922,3.4375,5.0576172,3.4375,8.2978516
		C1244.1079102,261.784668,1242.9594727,264.5219727,1240.6704102,266.7553711z"/>
</g>
</svg>
