<?xml version="1.0" encoding="utf-8"?>
<!-- Generator: Adobe Illustrator 26.1.0, SVG Export Plug-In . SVG Version: 6.00 Build 0)  -->
<svg version="1.1" id="Layer_1" xmlns="http://www.w3.org/2000/svg" xmlns:xlink="http://www.w3.org/1999/xlink" x="0px" y="0px"
	 viewBox="0 0 1570.8544922 507.3042603" style="enable-background:new 0 0 1570.8544922 507.3042603;" xml:space="preserve">
<style type="text/css">
	.st0{fill:#FFFFFF;}
</style>
<g>
	<path class="st0" d="M125.7131348,224.6255188l-26.9853516,74.5639648H80.6193848l-11.5400391-40.1230469
		c-0.9482422-3.3115234-1.4199219-6.09375-1.4199219-8.34375h-0.8876953c0,1.7753906-0.5322266,4.5576172-1.5976562,8.34375
		l-11.5400391,40.1230469H35.7033691L8.7180166,224.6255188h22.546875l12.0722656,43.3178711
		c0.7099609,2.6044922,1.0654297,4.6162109,1.0654297,6.0361328h1.0654297c0-0.9453125,0.4716797-3.1347656,1.4199219-6.5683594
		l11.3623047-42.7856445H76.536377l11.1845703,42.7856445c0.9453125,2.8398438,1.4199219,5.0322266,1.4199219,6.5683594h1.0654297
		c0-1.1816406,0.3544922-3.1953125,1.0654297-6.0361328l12.2490234-43.3178711H125.7131348z"/>
	<path class="st0" d="M155.982666,209.535675c-2.4277344,2.2490234-5.4150391,3.3730469-8.9658203,3.3730469
		s-6.5107422-1.1240234-8.8769531-3.3730469c-2.3681641-2.2470703-3.5498047-5.1484375-3.5498047-8.6992188
		s1.1816406-6.4804688,3.5498047-8.7880859c2.3662109-2.3076172,5.3261719-3.4619141,8.8769531-3.4619141
		s6.5380859,1.1542969,8.9658203,3.4619141c2.4238281,2.3076172,3.6396484,5.2373047,3.6396484,8.7880859
		S158.4064941,207.2886047,155.982666,209.535675z M136.1877441,299.1894836v-74.5639648h21.3037109v74.5639648H136.1877441z"/>
	<path class="st0" d="M169.9191895,224.6255188h12.9599609V201.901886h21.3037109v22.7236328h18.2861328v16.5102539h-18.2861328
		v33.3769531c0,5.4453125,2.6630859,8.1660156,7.9892578,8.1660156c1.3007812,0,2.6025391-0.2050781,3.90625-0.6210938
		c1.3007812-0.4130859,2.3076172-0.8574219,3.0175781-1.3320312l1.0654297-0.5322266l6.0361328,14.7353516
		c-5.5644531,4.0253906-11.9560547,6.0361328-19.1738281,6.0361328c-8.2861328,0-14.3798828-2.3076172-18.2861328-6.9238281
		c-3.9052734-4.6162109-5.8583984-10.8876953-5.8583984-18.8183594v-34.0869141h-12.9599609V224.6255188z"/>
	<path class="st0" d="M237.9143066,299.1894836V191.7817688h21.4814453v39.7675781h0.7099609
		c4.3769531-5.9169922,11.3623047-8.8759766,20.9492188-8.8759766c8.9931641,0,16.1826172,2.9902344,21.5703125,8.9648438
		c5.3837891,5.9780273,8.0771484,14.0551758,8.0771484,24.2329102v43.140625h-21.3037109v-41.1875
		c0-4.7324219-1.3623047-8.6689453-4.0830078-11.8056641c-2.7246094-3.1347656-6.3330078-4.7050781-10.8300781-4.7050781
		c-4.3798828,0-7.9306641,1.4199219-10.6513672,4.2607422c-2.7246094,2.8408203-4.203125,6.1552734-4.4384766,9.9423828v43.6728516
		H237.9143066z"/>
	<path class="st0" d="M421.8381348,278.2402649l7.4560547,14.0253906c-0.7099609,0.7099609-1.7470703,1.5703125-3.1064453,2.5742188
		c-1.3623047,1.0068359-4.4384766,2.3388672-9.2324219,3.9941406c-4.7929688,1.65625-10.0302734,2.4863281-15.7109375,2.4863281
		c-12.3115234,0-22.0449219-3.6982422-29.2050781-11.0966797c-7.1621094-7.3955078-10.7402344-16.8349609-10.7402344-28.3164062
		c0-11.2431641,3.4316406-20.5634766,10.296875-27.9619141c6.8623047-7.394043,15.7392578-11.0952148,26.6298828-11.0952148
		c10.7685547,0,19.2626953,3.3730469,25.4765625,10.1196289c6.2128906,6.7460938,9.3203125,15.7421875,9.3203125,26.984375
		l-0.1777344,5.859375h-50.9521484c1.1816406,12.4267578,8.1054688,18.640625,20.7714844,18.640625
		c3.4316406,0,6.7460938-0.5019531,9.9414062-1.5087891c3.1962891-1.0039062,5.5039062-2.0419922,6.9238281-3.1074219
		L421.8381348,278.2402649z M397.6936035,238.8281555c-8.4052734,0-13.4931641,4.7929688-15.2685547,14.3798828h29.8261719
		C411.302002,243.6211243,406.4504395,238.8281555,397.6936035,238.8281555z"/>
	<path class="st0" d="M468.7072754,256.5810852v42.6083984h-21.3037109v-74.5639648h13.3144531l3.0185547,10.4741211h1.2421875
		c2.9570312-4.2602539,6.2724609-7.3950195,9.9423828-9.4086914c3.6669922-2.0107422,8.4023438-3.0175781,14.2021484-3.0175781
		c9.5869141,0,17.1601562,3.0175781,22.7246094,9.0532227c5.5615234,6.0361328,8.34375,14.0859375,8.34375,24.1445312v43.3183594
		h-21.3037109v-41.5429688c0-4.7324219-1.3623047-8.6376953-4.0830078-11.7167969
		c-2.7246094-3.0771484-6.3916016-4.6162109-11.0068359-4.6162109c-4.6162109,0-8.2861328,1.5390625-11.0078125,4.6162109
		C470.0666504,249.0088196,468.7072754,252.5596008,468.7072754,256.5810852z"/>
	<path class="st0" d="M594.9338379,278.2402649l7.4560547,14.0253906c-0.7099609,0.7099609-1.7470703,1.5703125-3.1064453,2.5742188
		c-1.3623047,1.0068359-4.4384766,2.3388672-9.2324219,3.9941406c-4.7929688,1.65625-10.0302734,2.4863281-15.7109375,2.4863281
		c-12.3115234,0-22.0449219-3.6982422-29.2050781-11.0966797c-7.1621094-7.3955078-10.7402344-16.8349609-10.7402344-28.3164062
		c0-11.2431641,3.4316406-20.5634766,10.296875-27.9619141c6.8623047-7.394043,15.7392578-11.0952148,26.6298828-11.0952148
		c10.7685547,0,19.2626953,3.3730469,25.4765625,10.1196289c6.2128906,6.7460938,9.3203125,15.7421875,9.3203125,26.984375
		l-0.1777344,5.859375h-50.9521484c1.1816406,12.4267578,8.1054688,18.640625,20.7714844,18.640625
		c3.4316406,0,6.7460938-0.5019531,9.9414062-1.5087891c3.1962891-1.0039062,5.5039062-2.0419922,6.9238281-3.1074219
		L594.9338379,278.2402649z M570.7893066,238.8281555c-8.4052734,0-13.4931641,4.7929688-15.2685547,14.3798828h29.8261719
		C584.3977051,243.6211243,579.5461426,238.8281555,570.7893066,238.8281555z"/>
	<path class="st0" d="M662.7512207,224.6255188v17.9311523h-3.90625c-5.0898438,0-9.2041016,1.6279297-12.3378906,4.8818359
		c-3.1376953,3.2568359-4.7050781,7.6640625-4.7050781,13.2265625v38.5244141H620.498291v-74.5639648h13.3144531
		l3.0185547,11.0073242h1.0654297c3.9052734-7.3374023,10.8291016-11.0073242,20.7714844-11.0073242H662.7512207z"/>
	<path class="st0" d="M744.239502,240.6035461h-9.7636719v0.3544922c1.5361328,1.4208984,2.3076172,4.5576172,2.3076172,9.4091797
		c0,6.7470703-2.7236328,12.4277344-8.1669922,17.0439453c-5.4453125,4.6152344-13.2568359,6.9238281-23.4335938,6.9238281
		c-4.7353516,0-9.1738281-0.6494141-13.3154297-1.953125c-2.3691406,1.3037109-3.5507812,3.0185547-3.5507812,5.1484375
		c0,1.1845703,0.3554688,2.1611328,1.0654297,2.9296875c0.7099609,0.7705078,2.4853516,1.4814453,5.3261719,2.1298828
		c2.8398438,0.6523438,6.9814453,1.0957031,12.4267578,1.3320312c14.0839844,0.59375,23.90625,2.6044922,29.4707031,6.0361328
		c5.5615234,3.4335938,8.3447266,8.8759766,8.3447266,16.3330078c0,7.2177734-3.4345703,13.2841797-10.2978516,18.1972656
		c-6.8652344,4.9091797-16.5712891,7.3671875-29.1152344,7.3671875c-12.6660156,0-22.0136719-1.7753906-28.0498047-5.3261719
		s-9.0546875-8.4042969-9.0546875-14.5576172c0-6.984375,3.7861328-12.546875,11.3623047-16.6875
		c-6.6298828-3.1962891-9.9423828-8.2832031-9.9423828-15.2685547c0-5.6806641,3.5507812-10.4746094,10.6523438-14.3798828
		c-4.6162109-4.3779297-6.9238281-9.8232422-6.9238281-16.3330078c0-7.6923828,2.8681641-13.9648438,8.6103516-18.8178711
		c5.7392578-4.8525391,13.4042969-7.2792969,22.9912109-7.2792969c4.2607422,0,8.1660156,0.4746094,11.7167969,1.4199219h27.3398438
		V240.6035461z M707.1350098,300.2549133c-3.3144531-0.1191406-6.984375-0.4160156-11.0068359-0.8876953
		c-4.8544922,2.4853516-7.2792969,5.9169922-7.2792969,10.296875c0,5.6806641,5.5625,8.5214844,16.6884766,8.5214844
		c6.1523438,0,10.7685547-0.8291016,13.8476562-2.4853516c3.0761719-1.6591797,4.6162109-3.8476562,4.6162109-6.5693359
		c0-2.6044922-1.2148438-4.6767578-3.6396484-6.2128906C717.9348145,301.3779602,713.5266113,300.4902649,707.1350098,300.2549133z
		 M705.1828613,237.0527649c-3.7900391,0-6.7773438,1.1542969-8.9658203,3.4619141
		c-2.1914062,2.3076172-3.2841797,5.1210938-3.2841797,8.4326172c0,3.4345703,1.0927734,6.2744141,3.2841797,8.5214844
		c2.1884766,2.25,5.1757812,3.3730469,8.9658203,3.3730469c3.9052734,0,7.0117188-1.1230469,9.3203125-3.3730469
		c2.3076172-2.2470703,3.4619141-5.0869141,3.4619141-8.5214844c0-3.3115234-1.1542969-6.125-3.4619141-8.4326172
		C712.1945801,238.2070618,709.0881348,237.0527649,705.1828613,237.0527649z"/>
	<path class="st0" d="M777.8820801,209.535675c-2.4277344,2.2490234-5.4150391,3.3730469-8.9658203,3.3730469
		s-6.5107422-1.1240234-8.8769531-3.3730469c-2.3681641-2.2470703-3.5498047-5.1484375-3.5498047-8.6992188
		s1.1816406-6.4804688,3.5498047-8.7880859c2.3662109-2.3076172,5.3261719-3.4619141,8.8769531-3.4619141
		s6.5380859,1.1542969,8.9658203,3.4619141c2.4238281,2.3076172,3.6396484,5.2373047,3.6396484,8.7880859
		S780.3059082,207.2886047,777.8820801,209.535675z M758.0871582,299.1894836v-74.5639648h21.3037109v74.5639648H758.0871582z"/>
	<path class="st0" d="M859.4597168,299.1894836h-64.2680664v-11.7167969l36.5722656-45.6269531h-36.2167969v-17.2202148h63.9125977
		v10.6518555l-35.862793,46.6914062h35.862793V299.1894836z"/>
	<path class="st0" d="M894.8776855,209.535675c-2.4277344,2.2490234-5.4150391,3.3730469-8.9658203,3.3730469
		s-6.5107422-1.1240234-8.8769531-3.3730469c-2.3681641-2.2470703-3.5498047-5.1484375-3.5498047-8.6992188
		s1.1816406-6.4804688,3.5498047-8.7880859c2.3662109-2.3076172,5.3261719-3.4619141,8.8769531-3.4619141
		s6.5380859,1.1542969,8.9658203,3.4619141c2.4238281,2.3076172,3.6396484,5.2373047,3.6396484,8.7880859
		S897.3015137,207.2886047,894.8776855,209.535675z M875.0827637,299.1894836v-74.5639648h21.3037109v74.5639648H875.0827637z"/>
	<path class="st0" d="M937.3962402,256.5810852v42.6083984h-21.3037109v-74.5639648h13.3144531l3.0185547,10.4741211h1.2421875
		c2.9570312-4.2602539,6.2724609-7.3950195,9.9423828-9.4086914c3.6669922-2.0107422,8.4023438-3.0175781,14.2021484-3.0175781
		c9.5869141,0,17.1601562,3.0175781,22.7246094,9.0532227c5.5615234,6.0361328,8.34375,14.0859375,8.34375,24.1445312v43.3183594
		h-21.3037109v-41.5429688c0-4.7324219-1.3623047-8.6376953-4.0830078-11.7167969
		c-2.7246094-3.0771484-6.3916016-4.6162109-11.0068359-4.6162109c-4.6162109,0-8.2861328,1.5390625-11.0078125,4.6162109
		C938.7556152,249.0088196,937.3962402,252.5596008,937.3962402,256.5810852z"/>
	<path class="st0" d="M1077.8259277,240.6035461h-9.7636719v0.3544922c1.5361328,1.4208984,2.3076172,4.5576172,2.3076172,9.4091797
		c0,6.7470703-2.7236328,12.4277344-8.1669922,17.0439453c-5.4453125,4.6152344-13.2568359,6.9238281-23.4335938,6.9238281
		c-4.7353516,0-9.1738281-0.6494141-13.3154297-1.953125c-2.3691406,1.3037109-3.5507812,3.0185547-3.5507812,5.1484375
		c0,1.1845703,0.3554688,2.1611328,1.0654297,2.9296875c0.7099609,0.7705078,2.4853516,1.4814453,5.3261719,2.1298828
		c2.8398438,0.6523438,6.9814453,1.0957031,12.4267578,1.3320312c14.0839844,0.59375,23.90625,2.6044922,29.4707031,6.0361328
		c5.5615234,3.4335938,8.3447266,8.8759766,8.3447266,16.3330078c0,7.2177734-3.4345703,13.2841797-10.2978516,18.1972656
		c-6.8652344,4.9091797-16.5712891,7.3671875-29.1152344,7.3671875c-12.6660156,0-22.0136719-1.7753906-28.0498047-5.3261719
		s-9.0546875-8.4042969-9.0546875-14.5576172c0-6.984375,3.7861328-12.546875,11.3623047-16.6875
		c-6.6298828-3.1962891-9.9423828-8.2832031-9.9423828-15.2685547c0-5.6806641,3.5507812-10.4746094,10.6523438-14.3798828
		c-4.6162109-4.3779297-6.9238281-9.8232422-6.9238281-16.3330078c0-7.6923828,2.8681641-13.9648438,8.6103516-18.8178711
		c5.7392578-4.8525391,13.4042969-7.2792969,22.9912109-7.2792969c4.2607422,0,8.1660156,0.4746094,11.7167969,1.4199219h27.3398438
		V240.6035461z M1040.7214355,300.2549133c-3.3144531-0.1191406-6.984375-0.4160156-11.0068359-0.8876953
		c-4.8544922,2.4853516-7.2792969,5.9169922-7.2792969,10.296875c0,5.6806641,5.5625,8.5214844,16.6884766,8.5214844
		c6.1523438,0,10.7685547-0.8291016,13.8476562-2.4853516c3.0761719-1.6591797,4.6162109-3.8476562,4.6162109-6.5693359
		c0-2.6044922-1.2148438-4.6767578-3.6396484-6.2128906
		C1051.5212402,301.3779602,1047.1130371,300.4902649,1040.7214355,300.2549133z M1038.7692871,237.0527649
		c-3.7900391,0-6.7773438,1.1542969-8.9658203,3.4619141c-2.1914062,2.3076172-3.2841797,5.1210938-3.2841797,8.4326172
		c0,3.4345703,1.0927734,6.2744141,3.2841797,8.5214844c2.1884766,2.25,5.1757812,3.3730469,8.9658203,3.3730469
		c3.9052734,0,7.0117188-1.1230469,9.3203125-3.3730469c2.3076172-2.2470703,3.4619141-5.0869141,3.4619141-8.5214844
		c0-3.3115234-1.1542969-6.125-3.4619141-8.4326172C1045.7810059,238.2070618,1042.6745605,237.0527649,1038.7692871,237.0527649z"
		/>
	<path class="st0" d="M1128.0671387,299.1894836V191.7817688h21.3037109v41.1879883h0.8876953
		c0.1171875-0.2363281,0.3251953-0.5908203,0.6220703-1.0654297c0.2939453-0.4711914,1.0039062-1.300293,2.1298828-2.4848633
		c1.1230469-1.1816406,2.3964844-2.2197266,3.8173828-3.1074219c1.4199219-0.8876953,3.4619141-1.6865234,6.125-2.3964844
		c2.6621094-0.7099609,5.53125-1.0654297,8.6103516-1.0654297c9.703125,0,17.7529297,3.6699219,24.1445312,11.0073242
		c6.390625,7.3398438,9.5869141,16.7490234,9.5869141,28.2275391c0,11.7167969-3.2568359,21.1259766-9.7646484,28.2275391
		c-6.5107422,7.1015625-14.796875,10.6523438-24.8544922,10.6523438c-3.4345703,0-6.6298828-0.4443359-9.5869141-1.3320312
		c-2.9599609-0.8867188-5.2988281-1.921875-7.0126953-3.1064453c-1.7167969-1.1816406-3.1953125-2.3964844-4.4384766-3.6396484
		c-1.2431641-1.2421875-2.1025391-2.3349609-2.5742188-3.2841797l-0.7099609-1.2421875h-0.8876953l-3.0185547,10.8291016
		H1128.0671387z M1148.3054199,261.7295227c0,6.6298828,1.65625,11.8955078,4.9716797,15.8007812
		c3.3115234,3.90625,7.6337891,5.8583984,12.9599609,5.8583984c5.0869141,0,9.2900391-2.0410156,12.6044922-6.125
		c3.3125-4.0830078,4.9707031-9.2587891,4.9707031-15.5341797c0-6.2714844-1.6279297-11.3896484-4.8818359-15.3564453
		c-3.2568359-3.9638672-7.4873047-5.9472656-12.6933594-5.9472656c-5.3261719,0-9.6484375,1.9248047-12.9599609,5.7695312
		C1149.9616699,250.0429993,1148.3054199,255.2217102,1148.3054199,261.7295227z"/>
	<path class="st0" d="M1270.8044434,267.7656555v-43.1401367h21.3037109v74.5639648h-14.203125l-3.7275391-10.1191406h-0.8876953
		c-5.4453125,7.9306641-13.1376953,11.8945312-23.0800781,11.8945312c-9.4697266,0-16.9267578-2.9873047-22.3691406-8.9658203
		c-5.4453125-5.9746094-8.1660156-13.9941406-8.1660156-24.0556641v-43.3178711h21.3037109v41.5424805
		c0,4.9707031,1.2431641,9.0263672,3.7285156,12.1611328c2.4853516,3.1376953,6.0361328,4.7050781,10.6513672,4.7050781
		c4.8525391,0,8.6386719-1.5673828,11.3623047-4.7050781
		C1269.4421387,275.1943665,1270.8044434,271.6719055,1270.8044434,267.7656555z"/>
	<path class="st0" d="M1353.8894043,224.6255188v17.9311523h-3.90625c-5.0898438,0-9.2041016,1.6279297-12.3378906,4.8818359
		c-3.1376953,3.2568359-4.7050781,7.6640625-4.7050781,13.2265625v38.5244141h-21.3037109v-74.5639648h13.3144531
		l3.0185547,11.0073242h1.0654297c3.9052734-7.3374023,10.8291016-11.0073242,20.7714844-11.0073242H1353.8894043z"/>
	<path class="st0" d="M1361.5241699,292.6211243l6.9238281-14.5585938
		c7.4560547,4.8544922,15.5039062,7.2792969,24.1445312,7.2792969c7.5732422,0,11.3623047-2.1308594,11.3623047-6.3916016
		c0-2.1298828-1.4208984-3.875-4.2607422-5.2373047c-2.8408203-1.3583984-6.3027344-2.5742188-10.3857422-3.6386719
		c-4.0839844-1.0654297-8.1972656-2.3662109-12.3388672-3.90625c-4.1445312-1.5361328-7.6337891-4.0527344-10.4746094-7.5449219
		c-2.8408203-3.4892578-4.2607422-7.8388672-4.2607422-13.0488281c0-6.6269531,2.5742188-12.0722656,7.7226562-16.3325195
		c5.1484375-4.2607422,12.5166016-6.3916016,22.1025391-6.3916016c6.2724609,0,12.1308594,0.5332031,17.5761719,1.5976562
		c5.4423828,1.0654297,9.2900391,2.1923828,11.5400391,3.3740234l3.3730469,1.5976562l-6.5683594,15.7993164
		c-6.6298828-4.3769531-14.4414062-6.5683594-23.4345703-6.5683594c-7.2207031,0-10.8300781,2.0722656-10.8300781,6.2138672
		c0,1.7753906,1.0351562,3.2568359,3.1074219,4.4384766c2.0693359,1.1845703,4.7041016,2.0722656,7.8994141,2.6630859
		c3.1962891,0.59375,6.5966797,1.4804688,10.2089844,2.6630859c3.6083984,1.1835938,7.0117188,2.5458984,10.2080078,4.0830078
		c3.1953125,1.5390625,5.828125,3.9365234,7.9003906,7.1904297c2.0693359,3.2558594,3.1064453,7.1894531,3.1064453,11.8056641
		c0,6.984375-2.6347656,12.6044922-7.9003906,16.8652344c-5.2675781,4.2607422-13.4033203,6.3916016-24.4111328,6.3916016
		c-6.6289062,0-12.6347656-0.7099609-18.0195312-2.1308594c-5.3867188-1.4199219-9.0839844-2.8398438-11.0957031-4.2607422
		L1361.5241699,292.6211243z"/>
	<path class="st0" d="M1433.9567871,224.6255188h12.9599609V201.901886h21.3037109v22.7236328h18.2861328v16.5102539h-18.2861328
		v33.3769531c0,5.4453125,2.6630859,8.1660156,7.9892578,8.1660156c1.3007812,0,2.6025391-0.2050781,3.90625-0.6210938
		c1.3007812-0.4130859,2.3076172-0.8574219,3.0175781-1.3320312l1.0654297-0.5322266l6.0361328,14.7353516
		c-5.5644531,4.0253906-11.9560547,6.0361328-19.1738281,6.0361328c-8.2861328,0-14.3798828-2.3076172-18.2861328-6.9238281
		c-3.9052734-4.6162109-5.8583984-10.8876953-5.8583984-18.8183594v-34.0869141h-12.9599609V224.6255188z"/>
	<path class="st0" d="M1497.5144043,292.6211243l6.9238281-14.5585938
		c7.4560547,4.8544922,15.5039062,7.2792969,24.1445312,7.2792969c7.5732422,0,11.3623047-2.1308594,11.3623047-6.3916016
		c0-2.1298828-1.4208984-3.875-4.2607422-5.2373047c-2.8408203-1.3583984-6.3027344-2.5742188-10.3857422-3.6386719
		c-4.0839844-1.0654297-8.1972656-2.3662109-12.3388672-3.90625c-4.1445312-1.5361328-7.6337891-4.0527344-10.4746094-7.5449219
		c-2.8408203-3.4892578-4.2607422-7.8388672-4.2607422-13.0488281c0-6.6269531,2.5742188-12.0722656,7.7226562-16.3325195
		c5.1484375-4.2607422,12.5166016-6.3916016,22.1025391-6.3916016c6.2724609,0,12.1308594,0.5332031,17.5761719,1.5976562
		c5.4423828,1.0654297,9.2900391,2.1923828,11.5400391,3.3740234l3.3730469,1.5976562l-6.5683594,15.7993164
		c-6.6298828-4.3769531-14.4414062-6.5683594-23.4345703-6.5683594c-7.2207031,0-10.8300781,2.0722656-10.8300781,6.2138672
		c0,1.7753906,1.0351562,3.2568359,3.1074219,4.4384766c2.0693359,1.1845703,4.7041016,2.0722656,7.8994141,2.6630859
		c3.1962891,0.59375,6.5966797,1.4804688,10.2089844,2.6630859c3.6083984,1.1835938,7.0117188,2.5458984,10.2080078,4.0830078
		c3.1953125,1.5390625,5.828125,3.9365234,7.9003906,7.1904297c2.0693359,3.2558594,3.1064453,7.1894531,3.1064453,11.8056641
		c0,6.984375-2.6347656,12.6044922-7.9003906,16.8652344c-5.2675781,4.2607422-13.4033203,6.3916016-24.4111328,6.3916016
		c-6.6289062,0-12.6347656-0.7099609-18.0195312-2.1308594c-5.3867188-1.4199219-9.0839844-2.8398438-11.0957031-4.2607422
		L1497.5144043,292.6211243z"/>
</g>
</svg>
